Lexend-ExtraBold.ufo
<glyph name="exclam" format="2">
  <advance width="364"/>
  <unicode hex="0021"/>
  <outline>
    <contour>
      <point x="117" y="266" type="curve"/>
      <point x="247" y="266" type="line"/>
      <point x="265.667" y="383.333"/>
      <point x="289" y="517.667"/>
      <point x="289" y="635" type="curve" smooth="yes"/>
      <point x="289" y="720" type="line"/>
      <point x="75" y="720" type="line"/>
      <point x="75" y="635" type="line" smooth="yes"/>
      <point x="75" y="516.333"/>
      <point x="98.333" y="384.667"/>
    </contour>
    <contour>
      <point x="183" y="-11" type="curve" smooth="yes"/>
      <point x="241.667" y="-11"/>
      <point x="282" y="30.333"/>
      <point x="282" y="89" type="curve" smooth="yes"/>
      <point x="282" y="153"/>
      <point x="245.667" y="189"/>
      <point x="183" y="189" type="curve" smooth="yes"/>
      <point x="124.333" y="189"/>
      <point x="84" y="147.667"/>
      <point x="84" y="89" type="curve" smooth="yes"/>
      <point x="84" y="25"/>
      <point x="120.333" y="-11"/>
    </contour>
  </outline>
</glyph>
<glyph name="dollar" format="2">
  <advance width="642"/>
  <unicode hex="0024"/>
  <outline>
    <contour>
      <point x="325" y="-10" type="curve" smooth="yes"/>
      <point x="485" y="-10"/>
      <point x="612" y="70.667"/>
      <point x="612" y="224" type="curve" smooth="yes"/>
      <point x="612" y="369.333"/>
      <point x="505.667" y="427"/>
      <point x="359" y="455" type="curve" smooth="yes"/>
      <point x="327" y="461"/>
      <point x="254" y="472"/>
      <point x="254" y="506" type="curve" smooth="yes"/>
      <point x="254" y="531.333"/>
      <point x="281.667" y="541"/>
      <point x="327" y="541" type="curve" smooth="yes"/>
      <point x="403" y="541"/>
      <point x="481" y="521.333"/>
      <point x="545" y="476" type="curve"/>
      <point x="613" y="625" type="line"/>
      <point x="525" y="694.333"/>
      <point x="433.333" y="720"/>
      <point x="316" y="720" type="curve" smooth="yes"/>
      <point x="172" y="720"/>
      <point x="35" y="630.333"/>
      <point x="35" y="493" type="curve" smooth="yes"/>
      <point x="35" y="371.667"/>
      <point x="112.667" y="303.333"/>
      <point x="274" y="266" type="curve" smooth="yes"/>
      <point x="313" y="257"/>
      <point x="395" y="246"/>
      <point x="395" y="204" type="curve" smooth="yes"/>
      <point x="395" y="176"/>
      <point x="368.667" y="167"/>
      <point x="330" y="167" type="curve" smooth="yes"/>
      <point x="257.961" y="167"/>
      <point x="177" y="193.667"/>
      <point x="97" y="259" type="curve"/>
      <point x="12" y="96" type="line"/>
      <point x="82.667" y="29.333"/>
      <point x="180.648" y="-10"/>
    </contour>
    <contour>
      <point x="264" y="-91" type="line"/>
      <point x="372" y="-91" type="line"/>
      <point x="352" y="350" type="line"/>
      <point x="284" y="383" type="line"/>
    </contour>
    <contour>
      <point x="366" y="348" type="line"/>
      <point x="386" y="792" type="line"/>
      <point x="278" y="792" type="line"/>
      <point x="298" y="381" type="line"/>
    </contour>
  </outline>
</glyph>
<glyph name="percent" format="2">
  <advance width="1064"/>
  <unicode hex="0025"/>
  <outline>
    <contour>
      <point x="202" y="0" type="line"/>
      <point x="380" y="0" type="line"/>
      <point x="848" y="700" type="line"/>
      <point x="665" y="700" type="line"/>
    </contour>
    <contour>
      <point x="233" y="329" type="curve" smooth="yes"/>
      <point x="342.333" y="329"/>
      <point x="424" y="414.667"/>
      <point x="424" y="528" type="curve" smooth="yes"/>
      <point x="424" y="645.333"/>
      <point x="346.333" y="728"/>
      <point x="233" y="728" type="curve" smooth="yes"/>
      <point x="118.333" y="728"/>
      <point x="40" y="645.333"/>
      <point x="40" y="528" type="curve" smooth="yes"/>
      <point x="40" y="414.667"/>
      <point x="122.333" y="329"/>
    </contour>
    <contour>
      <point x="233" y="452" type="curve" smooth="yes"/>
      <point x="206.333" y="452"/>
      <point x="192" y="482.667"/>
      <point x="192" y="528" type="curve" smooth="yes"/>
      <point x="192" y="574.667"/>
      <point x="207.667" y="605"/>
      <point x="233" y="605" type="curve" smooth="yes"/>
      <point x="258.333" y="605"/>
      <point x="272" y="574.667"/>
      <point x="272" y="528" type="curve" smooth="yes"/>
      <point x="272" y="482.667"/>
      <point x="258.333" y="452"/>
    </contour>
    <contour>
      <point x="833" y="-10" type="curve" smooth="yes"/>
      <point x="942.333" y="-10"/>
      <point x="1024" y="75.667"/>
      <point x="1024" y="189" type="curve" smooth="yes"/>
      <point x="1024" y="306.333"/>
      <point x="946.333" y="389"/>
      <point x="833" y="389" type="curve" smooth="yes"/>
      <point x="718.333" y="389"/>
      <point x="640" y="306.333"/>
      <point x="640" y="189" type="curve" smooth="yes"/>
      <point x="640" y="75.667"/>
      <point x="722.333" y="-10"/>
    </contour>
    <contour>
      <point x="833" y="113" type="curve" smooth="yes"/>
      <point x="806.333" y="113"/>
      <point x="792" y="143.667"/>
      <point x="792" y="189" type="curve" smooth="yes"/>
      <point x="792" y="235.667"/>
      <point x="807.667" y="266"/>
      <point x="833" y="266" type="curve" smooth="yes"/>
      <point x="858.333" y="266"/>
      <point x="872" y="235.667"/>
      <point x="872" y="189" type="curve" smooth="yes"/>
      <point x="872" y="143.667"/>
      <point x="858.333" y="113"/>
    </contour>
  </outline>
</glyph>
<glyph name="parenleft" format="2">
  <advance width="407"/>
  <unicode hex="0028"/>
  <outline>
    <contour>
      <point x="290" y="-186" type="curve"/>
      <point x="407" y="-84" type="line"/>
      <point x="293.667" y="-6.667"/>
      <point x="244" y="122"/>
      <point x="244" y="258" type="curve" smooth="yes"/>
      <point x="244" y="394"/>
      <point x="293.667" y="522.667"/>
      <point x="407" y="600" type="curve"/>
      <point x="291" y="702" type="line"/>
      <point x="128.333" y="600.667"/>
      <point x="40" y="443.333"/>
      <point x="40" y="258" type="curve" smooth="yes"/>
      <point x="40" y="71.333"/>
      <point x="127.333" y="-84.667"/>
    </contour>
  </outline>
</glyph>
<glyph name="parenright" format="2">
  <advance width="407"/>
  <unicode hex="0029"/>
  <outline>
    <contour>
      <point x="116" y="-186" type="line"/>
      <point x="279" y="-85"/>
      <point x="367" y="73"/>
      <point x="367" y="258" type="curve" smooth="yes"/>
      <point x="367" y="445"/>
      <point x="280" y="601"/>
      <point x="117" y="702" type="curve"/>
      <point x="0" y="600" type="line"/>
      <point x="113" y="523"/>
      <point x="163" y="394"/>
      <point x="163" y="258" type="curve" smooth="yes"/>
      <point x="163" y="122"/>
      <point x="113" y="-7"/>
      <point x="0" y="-84" type="curve"/>
    </contour>
  </outline>
</glyph>
<glyph name="hyphen" format="2">
  <advance width="488"/>
  <unicode hex="002D"/>
  <outline>
    <contour>
      <point x="50" y="198" type="line"/>
      <point x="438" y="198" type="line"/>
      <point x="438" y="378" type="line"/>
      <point x="50" y="378" type="line"/>
    </contour>
  </outline>
</glyph>
<glyph name="period" format="2">
  <advance width="278"/>
  <unicode hex="002E"/>
  <outline>
    <contour>
      <point x="139" y="-11" type="curve" smooth="yes"/>
      <point x="197.667" y="-11"/>
      <point x="238" y="30.333"/>
      <point x="238" y="89" type="curve" smooth="yes"/>
      <point x="238" y="153"/>
      <point x="201.667" y="189"/>
      <point x="139" y="189" type="curve" smooth="yes"/>
      <point x="80.333" y="189"/>
      <point x="40" y="147.667"/>
      <point x="40" y="89" type="curve" smooth="yes"/>
      <point x="40" y="25"/>
      <point x="76.333" y="-11"/>
    </contour>
  </outline>
</glyph>
<glyph name="zero" format="2">
  <advance width="725"/>
  <unicode hex="0030"/>
  <outline>
    <contour>
      <point x="362" y="-10" type="curve" smooth="yes"/>
      <point x="572.667" y="-10"/>
      <point x="690" y="119.333"/>
      <point x="690" y="350" type="curve" smooth="yes"/>
      <point x="690" y="580.667"/>
      <point x="572.667" y="710"/>
      <point x="362" y="710" type="curve" smooth="yes"/>
      <point x="151.333" y="710"/>
      <point x="35" y="580.667"/>
      <point x="35" y="350" type="curve" smooth="yes"/>
      <point x="35" y="119.333"/>
      <point x="151.333" y="-10"/>
    </contour>
    <contour>
      <point x="362" y="168" type="curve" smooth="yes"/>
      <point x="283.333" y="168"/>
      <point x="239" y="232.667"/>
      <point x="239" y="350" type="curve" smooth="yes"/>
      <point x="239" y="474"/>
      <point x="283.333" y="542"/>
      <point x="362" y="542" type="curve" smooth="yes"/>
      <point x="440.667" y="542"/>
      <point x="485" y="474"/>
      <point x="485" y="350" type="curve" smooth="yes"/>
      <point x="485" y="232.667"/>
      <point x="440.667" y="168"/>
    </contour>
  </outline>
</glyph>
<glyph name="one" format="2">
  <advance width="607"/>
  <unicode hex="0031"/>
  <outline>
    <contour>
      <point x="207" y="49" type="line"/>
      <point x="416" y="49" type="line"/>
      <point x="416" y="710" type="line"/>
      <point x="264" y="710" type="line"/>
      <point x="56" y="615" type="line"/>
      <point x="85" y="421" type="line"/>
      <point x="244" y="489" type="line"/>
      <point x="207" y="617" type="line"/>
    </contour>
    <contour>
      <point x="66" y="0" type="line"/>
      <point x="560" y="0" type="line"/>
      <point x="560" y="184" type="line"/>
      <point x="66" y="184" type="line"/>
    </contour>
  </outline>
</glyph>
<glyph name="five" format="2">
  <advance width="617"/>
  <unicode hex="0035"/>
  <outline>
    <contour>
      <point x="301" y="-7" type="curve" smooth="yes"/>
      <point x="454.333" y="-7"/>
      <point x="572" y="99.333"/>
      <point x="572" y="238" type="curve" smooth="yes"/>
      <point x="572" y="382"/>
      <point x="469.333" y="483"/>
      <point x="332" y="483" type="curve" smooth="yes"/>
      <point x="262.667" y="483"/>
      <point x="194.667" y="452.333"/>
      <point x="144" y="411" type="curve"/>
      <point x="229" y="397" type="line"/>
      <point x="262" y="619" type="line"/>
      <point x="201" y="535" type="line"/>
      <point x="531" y="535" type="line"/>
      <point x="531" y="710" type="line"/>
      <point x="111" y="710" type="line"/>
      <point x="66" y="392" type="line"/>
      <point x="150" y="282" type="line"/>
      <point x="200.667" y="315.333"/>
      <point x="235" y="329"/>
      <point x="287" y="329" type="curve" smooth="yes"/>
      <point x="340.333" y="329"/>
      <point x="377" y="295.333"/>
      <point x="377" y="250" type="curve" smooth="yes"/>
      <point x="377" y="206"/>
      <point x="343" y="173"/>
      <point x="291" y="173" type="curve" smooth="yes"/>
      <point x="232.333" y="173"/>
      <point x="189" y="189.667"/>
      <point x="141" y="243" type="curve"/>
      <point x="26" y="118" type="line"/>
      <point x="88.667" y="36.667"/>
      <point x="185" y="-7"/>
    </contour>
  </outline>
</glyph>
<glyph name="six" format="2">
  <advance width="596"/>
  <unicode hex="0036"/>
  <outline>
    <contour>
      <point x="302" y="0" type="curve" smooth="yes"/>
      <point x="458" y="0"/>
      <point x="576" y="112"/>
      <point x="576" y="260" type="curve" smooth="yes"/>
      <point x="576" y="384"/>
      <point x="475" y="489"/>
      <point x="355" y="489" type="curve" smooth="yes"/>
      <point x="272.333" y="489"/>
      <point x="150.333" y="408.333"/>
      <point x="141" y="303" type="curve"/>
      <point x="179" y="260" type="line"/>
      <point x="220" y="351"/>
      <point x="236" y="393"/>
      <point x="282" y="464" type="curve" smooth="yes"/>
      <point x="437" y="700" type="line"/>
      <point x="433" y="710" type="line"/>
      <point x="237" y="710" type="line"/>
      <point x="134" y="538" type="line" smooth="yes"/>
      <point x="75" y="440"/>
      <point x="30" y="372.667"/>
      <point x="30" y="258" type="curve" smooth="yes"/>
      <point x="30" y="116.667"/>
      <point x="152.667" y="0"/>
    </contour>
    <contour>
      <point x="306" y="170" type="curve" smooth="yes"/>
      <point x="254" y="170"/>
      <point x="217" y="205.667"/>
      <point x="217" y="255" type="curve" smooth="yes"/>
      <point x="217" y="301.667"/>
      <point x="254" y="339"/>
      <point x="306" y="339" type="curve" smooth="yes"/>
      <point x="355.333" y="339"/>
      <point x="395" y="299"/>
      <point x="395" y="255" type="curve" smooth="yes"/>
      <point x="395" y="204.333"/>
      <point x="358" y="170"/>
    </contour>
  </outline>
</glyph>
<glyph name="eight" format="2">
  <advance width="613"/>
  <unicode hex="0038"/>
  <outline>
    <contour>
      <point x="306" y="-3" type="curve" smooth="yes"/>
      <point x="460.667" y="-3"/>
      <point x="583" y="85"/>
      <point x="583" y="209" type="curve" smooth="yes"/>
      <point x="583" y="331.828"/>
      <point x="510.667" y="393.609"/>
      <point x="409" y="411" type="curve"/>
      <point x="422" y="360" type="line"/>
      <point x="508.727" y="395.479"/>
      <point x="555" y="452.211"/>
      <point x="555" y="529" type="curve" smooth="yes"/>
      <point x="555" y="642.333"/>
      <point x="443.333" y="720"/>
      <point x="306" y="720" type="curve" smooth="yes"/>
      <point x="168.667" y="720"/>
      <point x="57" y="642.333"/>
      <point x="57" y="529" type="curve" smooth="yes"/>
      <point x="57" y="452.211"/>
      <point x="108.767" y="391.567"/>
      <point x="189" y="360" type="curve"/>
      <point x="205" y="415" type="line"/>
      <point x="92.444" y="390.881"/>
      <point x="30" y="330.089"/>
      <point x="30" y="209" type="curve" smooth="yes"/>
      <point x="30" y="86.333"/>
      <point x="152.667" y="-3"/>
    </contour>
    <contour>
      <point x="306" y="156" type="curve" smooth="yes"/>
      <point x="264.667" y="156"/>
      <point x="231" y="185"/>
      <point x="231" y="225" type="curve" smooth="yes"/>
      <point x="231" y="265"/>
      <point x="264.667" y="294"/>
      <point x="306" y="294" type="curve" smooth="yes"/>
      <point x="350" y="294"/>
      <point x="381" y="265"/>
      <point x="381" y="225" type="curve" smooth="yes"/>
      <point x="381" y="183.667"/>
      <point x="348.667" y="156"/>
    </contour>
    <contour>
      <point x="306" y="457" type="curve" smooth="yes"/>
      <point x="267.333" y="457"/>
      <point x="240" y="482"/>
      <point x="240" y="518" type="curve" smooth="yes"/>
      <point x="240" y="554"/>
      <point x="267.333" y="581"/>
      <point x="306" y="581" type="curve" smooth="yes"/>
      <point x="344.667" y="581"/>
      <point x="372" y="554"/>
      <point x="372" y="518" type="curve" smooth="yes"/>
      <point x="372" y="482"/>
      <point x="344.667" y="457"/>
    </contour>
  </outline>
</glyph>
<glyph name="nine" format="2">
  <advance width="596"/>
  <unicode hex="0039"/>
  <outline>
    <contour>
      <point x="193" y="0" type="line"/>
      <point x="389" y="0" type="line"/>
      <point x="482" y="174" type="line" smooth="yes"/>
      <point x="531.333" y="266"/>
      <point x="576" y="356"/>
      <point x="576" y="472" type="curve" smooth="yes"/>
      <point x="576" y="606.667"/>
      <point x="453.496" y="720"/>
      <point x="304" y="720" type="curve" smooth="yes"/>
      <point x="147.627" y="720"/>
      <point x="30" y="604"/>
      <point x="30" y="456" type="curve" smooth="yes"/>
      <point x="30" y="332"/>
      <point x="126.333" y="223"/>
      <point x="241" y="223" type="curve" smooth="yes"/>
      <point x="327.529" y="223"/>
      <point x="455.66" y="303.587"/>
      <point x="465" y="409" type="curve"/>
      <point x="417" y="452" type="line"/>
      <point x="189" y="10" type="line"/>
    </contour>
    <contour>
      <point x="295" y="383" type="curve" smooth="yes"/>
      <point x="248.439" y="383"/>
      <point x="211" y="423"/>
      <point x="211" y="467" type="curve" smooth="yes"/>
      <point x="211" y="517.667"/>
      <point x="245.921" y="552"/>
      <point x="295" y="552" type="curve" smooth="yes"/>
      <point x="344.62" y="552"/>
      <point x="379" y="516.333"/>
      <point x="379" y="467" type="curve" smooth="yes"/>
      <point x="379" y="420.333"/>
      <point x="344.62" y="383"/>
    </contour>
  </outline>
</glyph>
<glyph name="at" format="2">
  <advance width="965"/>
  <unicode hex="0040"/>
  <outline>
    <contour>
      <point x="414" y="-162" type="curve" smooth="yes"/>
      <point x="494" y="-162"/>
      <point x="551.667" y="-149"/>
      <point x="669" y="-89" type="curve"/>
      <point x="632" y="-22" type="line"/>
      <point x="556" y="-63"/>
      <point x="511" y="-82"/>
      <point x="417" y="-82" type="curve" smooth="yes"/>
      <point x="229" y="-82"/>
      <point x="124" y="26.333"/>
      <point x="124" y="209" type="curve" smooth="yes"/>
      <point x="124" y="473.539"/>
      <point x="294.464" y="633"/>
      <point x="568" y="633" type="curve" smooth="yes"/>
      <point x="739.841" y="633"/>
      <point x="842" y="542.208"/>
      <point x="842" y="391" type="curve" smooth="yes"/>
      <point x="842" y="264.333"/>
      <point x="789.011" y="157"/>
      <point x="720" y="157" type="curve" smooth="yes"/>
      <point x="698.667" y="157"/>
      <point x="681" y="166"/>
      <point x="687" y="194" type="curve" smooth="yes"/>
      <point x="752" y="517" type="line"/>
      <point x="576" y="517" type="line"/>
      <point x="545" y="391" type="line"/>
      <point x="580" y="395" type="line"/>
      <point x="573.332" y="475.021"/>
      <point x="527.333" y="530"/>
      <point x="466" y="530" type="curve" smooth="yes"/>
      <point x="332" y="530"/>
      <point x="221" y="371"/>
      <point x="221" y="237" type="curve" smooth="yes"/>
      <point x="221" y="123.667"/>
      <point x="292.595" y="45"/>
      <point x="389" y="45" type="curve" smooth="yes"/>
      <point x="469" y="45"/>
      <point x="531" y="102"/>
      <point x="563" y="202" type="curve"/>
      <point x="529" y="222" type="line"/>
      <point x="529" y="198"/>
      <point x="528" y="175"/>
      <point x="528" y="151" type="curve" smooth="yes"/>
      <point x="527.117" y="88.323"/>
      <point x="586.569" y="45"/>
      <point x="669" y="45" type="curve" smooth="yes"/>
      <point x="813" y="45"/>
      <point x="925" y="209.333"/>
      <point x="925" y="396" type="curve" smooth="yes"/>
      <point x="925" y="582.667"/>
      <point x="788" y="710"/>
      <point x="576" y="710" type="curve" smooth="yes"/>
      <point x="279" y="710"/>
      <point x="40" y="519"/>
      <point x="40" y="206" type="curve" smooth="yes"/>
      <point x="40" y="-14"/>
      <point x="180.667" y="-162"/>
    </contour>
    <contour>
      <point x="445" y="192" type="curve" smooth="yes"/>
      <point x="423.667" y="192"/>
      <point x="410" y="213.836"/>
      <point x="410" y="249" type="curve" smooth="yes"/>
      <point x="410" y="329"/>
      <point x="448.141" y="394"/>
      <point x="501" y="394" type="curve" smooth="yes"/>
      <point x="534" y="394"/>
      <point x="545" y="373"/>
      <point x="545" y="343" type="curve" smooth="yes"/>
      <point x="545" y="330"/>
      <point x="543" y="316"/>
      <point x="540" y="301" type="curve" smooth="yes"/>
      <point x="527.748" y="234.841"/>
      <point x="485" y="192"/>
    </contour>
  </outline>
</glyph>
<glyph name="D" format="2">
  <advance width="790"/>
  <unicode hex="0044"/>
  <anchor x="395" y="0" name="bottom"/>
  <anchor x="209" y="350" name="center"/>
  <anchor x="395" y="700" name="top"/>
  <outline>
    <contour>
      <point x="80" y="0" type="line"/>
      <point x="388" y="0" type="line" smooth="yes"/>
      <point x="598.667" y="0"/>
      <point x="750" y="146"/>
      <point x="750" y="350" type="curve" smooth="yes"/>
      <point x="750" y="554"/>
      <point x="598.667" y="700"/>
      <point x="388" y="700" type="curve" smooth="yes"/>
      <point x="80" y="700" type="line"/>
    </contour>
    <contour>
      <point x="296" y="133" type="line"/>
      <point x="296" y="565" type="line"/>
      <point x="256" y="516" type="line"/>
      <point x="383" y="516" type="line" smooth="yes"/>
      <point x="469.667" y="516"/>
      <point x="532" y="446"/>
      <point x="532" y="350" type="curve" smooth="yes"/>
      <point x="532" y="254"/>
      <point x="469.667" y="184"/>
      <point x="383" y="184" type="curve" smooth="yes"/>
      <point x="259" y="184" type="line"/>
    </contour>
  </outline>
</glyph>
<glyph name="G" format="2">
  <advance width="793"/>
  <unicode hex="0047"/>
  <anchor x="397" y="0" name="bottom"/>
  <anchor x="418" y="700" name="top"/>
  <outline>
    <contour>
      <point x="414" y="-10" type="curve" smooth="yes"/>
      <point x="611.333" y="-10"/>
      <point x="753" y="119"/>
      <point x="753" y="299" type="curve" smooth="yes"/>
      <point x="753" y="317.667"/>
      <point x="750.667" y="395.333"/>
      <point x="748" y="418" type="curve"/>
      <point x="404" y="418" type="line"/>
      <point x="404" y="266" type="line"/>
      <point x="582" y="266" type="line"/>
      <point x="554" y="314" type="line"/>
      <point x="554" y="285" type="line" smooth="yes"/>
      <point x="554" y="221"/>
      <point x="504" y="174"/>
      <point x="436" y="174" type="curve" smooth="yes"/>
      <point x="334.667" y="174"/>
      <point x="262" y="249.667"/>
      <point x="262" y="355" type="curve" smooth="yes"/>
      <point x="262" y="460.333"/>
      <point x="332.333" y="536"/>
      <point x="427" y="536" type="curve" smooth="yes"/>
      <point x="497.667" y="536"/>
      <point x="544" y="508.333"/>
      <point x="584" y="471" type="curve"/>
      <point x="712" y="607" type="line"/>
      <point x="650.667" y="671"/>
      <point x="551.333" y="720"/>
      <point x="430" y="720" type="curve" smooth="yes"/>
      <point x="195.333" y="720"/>
      <point x="40" y="567"/>
      <point x="40" y="355" type="curve" smooth="yes"/>
      <point x="40" y="143"/>
      <point x="174" y="-10"/>
    </contour>
  </outline>
</glyph>
<glyph name="J" format="2">
  <advance width="682"/>
  <unicode hex="004A"/>
  <anchor x="341" y="0" name="bottom"/>
  <anchor x="391" y="700" name="top"/>
  <outline>
    <contour>
      <point x="265" y="-10" type="curve" smooth="yes"/>
      <point x="391.667" y="-10"/>
      <point x="494" y="70.333"/>
      <point x="494" y="213" type="curve" smooth="yes"/>
      <point x="494" y="516" type="line"/>
      <point x="602" y="516" type="line"/>
      <point x="602" y="700" type="line"/>
      <point x="157" y="700" type="line"/>
      <point x="157" y="516" type="line"/>
      <point x="286" y="516" type="line"/>
      <point x="286" y="240" type="line" smooth="yes"/>
      <point x="286" y="202.667"/>
      <point x="265" y="179"/>
      <point x="233" y="179" type="curve" smooth="yes"/>
      <point x="201" y="179"/>
      <point x="172.667" y="203.333"/>
      <point x="150" y="238" type="curve"/>
      <point x="31" y="115" type="line"/>
      <point x="75" y="35"/>
      <point x="151.667" y="-10"/>
    </contour>
  </outline>
</glyph>
<glyph name="K" format="2">
  <advance width="744"/>
  <unicode hex="004B"/>
  <anchor x="372" y="0" name="bottom"/>
  <anchor x="372" y="700" name="top"/>
  <outline>
    <contour>
      <point x="230" y="199" type="line"/>
      <point x="735" y="700" type="line"/>
      <point x="490" y="700" type="line"/>
      <point x="157" y="359" type="line"/>
    </contour>
    <contour>
      <point x="80" y="0" type="line"/>
      <point x="296" y="0" type="line"/>
      <point x="296" y="700" type="line"/>
      <point x="80" y="700" type="line"/>
    </contour>
    <contour>
      <point x="519" y="0" type="line"/>
      <point x="764" y="0" type="line"/>
      <point x="405" y="452" type="line"/>
      <point x="265" y="331" type="line"/>
    </contour>
  </outline>
</glyph>
<glyph name="N" format="2">
  <advance width="817"/>
  <unicode hex="004E"/>
  <anchor x="409" y="0" name="bottom"/>
  <anchor x="409" y="700" name="top"/>
  <outline>
    <contour>
      <point x="80" y="0" type="line"/>
      <point x="288" y="0" type="line"/>
      <point x="288" y="191" type="line" smooth="yes"/>
      <point x="288" y="313.667"/>
      <point x="284" y="343.333"/>
      <point x="268" y="466" type="curve"/>
      <point x="187" y="490" type="line"/>
      <point x="542" y="0" type="line"/>
      <point x="737" y="0" type="line"/>
      <point x="737" y="700" type="line"/>
      <point x="529" y="700" type="line"/>
      <point x="529" y="570" type="line" smooth="yes"/>
      <point x="527.667" y="436.667"/>
      <point x="533" y="402.333"/>
      <point x="549" y="269" type="curve"/>
      <point x="595" y="255" type="line"/>
      <point x="273" y="700" type="line"/>
      <point x="80" y="700" type="line"/>
    </contour>
  </outline>
</glyph>
<glyph name="P" format="2">
  <advance width="683"/>
  <unicode hex="0050"/>
  <anchor x="342" y="0" name="bottom"/>
  <anchor x="342" y="700" name="top"/>
  <outline>
    <contour>
      <point x="80" y="0" type="line"/>
      <point x="296" y="0" type="line"/>
      <point x="296" y="208" type="line"/>
      <point x="395" y="208" type="line" smooth="yes"/>
      <point x="539" y="208"/>
      <point x="643" y="313.333"/>
      <point x="643" y="460" type="curve" smooth="yes"/>
      <point x="643" y="600"/>
      <point x="539" y="700"/>
      <point x="395" y="700" type="curve" smooth="yes"/>
      <point x="80" y="700" type="line"/>
    </contour>
    <contour>
      <point x="292" y="392" type="line"/>
      <point x="292" y="516" type="line"/>
      <point x="355" y="516" type="line" smooth="yes"/>
      <point x="393.667" y="516"/>
      <point x="421" y="497.333"/>
      <point x="421" y="456" type="curve" smooth="yes"/>
      <point x="421" y="414.667"/>
      <point x="393.667" y="392"/>
      <point x="355" y="392" type="curve" smooth="yes"/>
    </contour>
  </outline>
</glyph>
<glyph name="bracketleft" format="2">
  <advance width="432"/>
  <unicode hex="005B"/>
  <outline>
    <contour>
      <point x="80" y="-190" type="line"/>
      <point x="407" y="-190" type="line"/>
      <point x="407" y="-10" type="line"/>
      <point x="269" y="-10" type="line"/>
      <point x="279" y="-22" type="line"/>
      <point x="279" y="528" type="line"/>
      <point x="273" y="520" type="line"/>
      <point x="407" y="520" type="line"/>
      <point x="407" y="700" type="line"/>
      <point x="80" y="700" type="line"/>
    </contour>
  </outline>
</glyph>
<glyph name="backslash" format="2">
  <advance width="604"/>
  <unicode hex="005C"/>
  <outline>
    <contour>
      <point x="398" y="-107" type="line"/>
      <point x="604" y="-107" type="line"/>
      <point x="204" y="700" type="line"/>
      <point x="0" y="700" type="line"/>
    </contour>
  </outline>
</glyph>
<glyph name="bracketright" format="2">
  <advance width="432"/>
  <unicode hex="005D"/>
  <outline>
    <contour>
      <point x="25" y="-190" type="line"/>
      <point x="352" y="-190" type="line"/>
      <point x="352" y="700" type="line"/>
      <point x="25" y="700" type="line"/>
      <point x="25" y="520" type="line"/>
      <point x="163" y="520" type="line"/>
      <point x="153" y="532" type="line"/>
      <point x="153" y="-18" type="line"/>
      <point x="159" y="-10" type="line"/>
      <point x="25" y="-10" type="line"/>
    </contour>
  </outline>
</glyph>
<glyph name="a" format="2">
  <advance width="679"/>
  <unicode hex="0061"/>
  <anchor x="340" y="0" name="bottom"/>
  <anchor x="554" y="0" name="ogonek"/>
  <anchor x="340" y="535" name="top"/>
  <outline>
    <contour>
      <point x="261" y="-9" type="curve" smooth="yes"/>
      <point x="357" y="-9"/>
      <point x="422" y="49.667"/>
      <point x="450" y="127" type="curve"/>
      <point x="405" y="131" type="line"/>
      <point x="405" y="0" type="line"/>
      <point x="609" y="0" type="line"/>
      <point x="609" y="535" type="line"/>
      <point x="410" y="535" type="line"/>
      <point x="410" y="417" type="line"/>
      <point x="451" y="416" type="line"/>
      <point x="420.333" y="488"/>
      <point x="360.333" y="546"/>
      <point x="263" y="546" type="curve" smooth="yes"/>
      <point x="124.333" y="546"/>
      <point x="30" y="432"/>
      <point x="30" y="268" type="curve" smooth="yes"/>
      <point x="30" y="106.667"/>
      <point x="127.667" y="-9"/>
    </contour>
    <contour>
      <point x="319" y="156" type="curve" smooth="yes"/>
      <point x="261.667" y="156"/>
      <point x="229" y="196"/>
      <point x="229" y="268" type="curve" smooth="yes"/>
      <point x="229" y="340"/>
      <point x="261.667" y="381"/>
      <point x="319" y="381" type="curve" smooth="yes"/>
      <point x="377.667" y="381"/>
      <point x="410" y="340"/>
      <point x="410" y="268" type="curve" smooth="yes"/>
      <point x="410" y="196"/>
      <point x="377.667" y="156"/>
    </contour>
  </outline>
</glyph>
<glyph name="b" format="2">
  <advance width="679"/>
  <unicode hex="0062"/>
  <anchor x="340" y="0" name="bottom"/>
  <anchor x="340" y="740" name="top"/>
  <outline>
    <contour>
      <point x="421" y="-11" type="curve" smooth="yes"/>
      <point x="553" y="-11"/>
      <point x="649" y="103"/>
      <point x="649" y="267" type="curve" smooth="yes"/>
      <point x="649" y="428.333"/>
      <point x="551.517" y="546"/>
      <point x="416" y="546" type="curve" smooth="yes"/>
      <point x="325.333" y="546"/>
      <point x="246.333" y="491.333"/>
      <point x="229" y="418" type="curve"/>
      <point x="274" y="404" type="line"/>
      <point x="274" y="740" type="line"/>
      <point x="70" y="740" type="line"/>
      <point x="70" y="0" type="line"/>
      <point x="253" y="0" type="line"/>
      <point x="269" y="118" type="line"/>
      <point x="228" y="109" type="line"/>
      <point x="241.333" y="39.667"/>
      <point x="322.333" y="-11"/>
    </contour>
    <contour>
      <point x="360" y="154" type="curve" smooth="yes"/>
      <point x="301.333" y="154"/>
      <point x="269" y="195"/>
      <point x="269" y="267" type="curve" smooth="yes"/>
      <point x="269" y="339"/>
      <point x="301.333" y="380"/>
      <point x="360" y="380" type="curve" smooth="yes"/>
      <point x="417.333" y="380"/>
      <point x="450" y="339"/>
      <point x="450" y="267" type="curve" smooth="yes"/>
      <point x="450" y="195"/>
      <point x="417.333" y="154"/>
    </contour>
  </outline>
</glyph>
<glyph name="c" format="2">
  <advance width="553"/>
  <unicode hex="0063"/>
  <anchor x="312" y="0" name="bottom"/>
  <anchor x="311" y="535" name="top"/>
  <outline>
    <contour>
      <point x="311" y="-10" type="curve" smooth="yes"/>
      <point x="407" y="-10"/>
      <point x="492.667" y="20.333"/>
      <point x="542" y="75" type="curve"/>
      <point x="433" y="206" type="line"/>
      <point x="410.333" y="180.667"/>
      <point x="378.333" y="164"/>
      <point x="329" y="164" type="curve" smooth="yes"/>
      <point x="266.333" y="164"/>
      <point x="230" y="209"/>
      <point x="230" y="269" type="curve" smooth="yes"/>
      <point x="230" y="330.333"/>
      <point x="269" y="373"/>
      <point x="329" y="373" type="curve" smooth="yes"/>
      <point x="378.333" y="373"/>
      <point x="410.333" y="354"/>
      <point x="433" y="330" type="curve"/>
      <point x="543" y="460" type="line"/>
      <point x="492.333" y="516"/>
      <point x="407" y="546"/>
      <point x="311" y="546" type="curve" smooth="yes"/>
      <point x="148.333" y="546"/>
      <point x="30" y="429.333"/>
      <point x="30" y="268" type="curve" smooth="yes"/>
      <point x="30" y="106.667"/>
      <point x="148.333" y="-10"/>
    </contour>
  </outline>
</glyph>
<glyph name="e" format="2">
  <advance width="586"/>
  <unicode hex="0065"/>
  <anchor x="329" y="0" name="bottom"/>
  <anchor x="527" y="10" name="ogonek"/>
  <anchor x="301" y="535" name="top"/>
  <outline>
    <contour>
      <point x="329" y="-10" type="curve" smooth="yes"/>
      <point x="401" y="-10"/>
      <point x="467.333" y="7.667"/>
      <point x="542" y="65" type="curve"/>
      <point x="449" y="196" type="line"/>
      <point x="417" y="173.333"/>
      <point x="392" y="164"/>
      <point x="352" y="164" type="curve" smooth="yes"/>
      <point x="261.385" y="164"/>
      <point x="215" y="212"/>
      <point x="215" y="284" type="curve" smooth="yes"/>
      <point x="215" y="345.333"/>
      <point x="246.333" y="383"/>
      <point x="305" y="383" type="curve" smooth="yes"/>
      <point x="351.667" y="383"/>
      <point x="381" y="357.667"/>
      <point x="381" y="319" type="curve" smooth="yes"/>
      <point x="381" y="301" type="line"/>
      <point x="400" y="321" type="line"/>
      <point x="119" y="321" type="line"/>
      <point x="142" y="226" type="line"/>
      <point x="561" y="226" type="line"/>
      <point x="562" y="268" type="line" smooth="yes"/>
      <point x="566" y="429"/>
      <point x="458.333" y="546"/>
      <point x="301" y="546" type="curve" smooth="yes"/>
      <point x="143.667" y="546"/>
      <point x="30" y="429.333"/>
      <point x="30" y="268" type="curve" smooth="yes"/>
      <point x="30" y="106.667"/>
      <point x="142.333" y="-10"/>
    </contour>
  </outline>
</glyph>
<glyph name="f" format="2">
  <advance width="393"/>
  <unicode hex="0066"/>
  <anchor x="197" y="0" name="bottom"/>
  <anchor x="197" y="740" name="top"/>
  <outline>
    <contour>
      <point x="86" y="0" type="line"/>
      <point x="103.333" y="0"/>
      <point x="137.167" y="0"/>
      <point x="187.5" y="0" type="curve" smooth="yes"/>
      <point x="289" y="0" type="line"/>
      <point x="289" y="513" type="line" smooth="yes"/>
      <point x="289" y="547.667"/>
      <point x="301" y="565"/>
      <point x="333" y="565" type="curve" smooth="yes"/>
      <point x="342.333" y="565"/>
      <point x="355.667" y="563"/>
      <point x="373" y="559" type="curve"/>
      <point x="426" y="704" type="line"/>
      <point x="384.667" y="729.333"/>
      <point x="338.667" y="745"/>
      <point x="284" y="745" type="curve" smooth="yes"/>
      <point x="164" y="745"/>
      <point x="86" y="650.333"/>
      <point x="86" y="537" type="curve" smooth="yes"/>
    </contour>
    <contour>
      <point x="13" y="356" type="line"/>
      <point x="387" y="356" type="line"/>
      <point x="387" y="516" type="line"/>
      <point x="13" y="516" type="line"/>
    </contour>
  </outline>
</glyph>
<glyph name="g" format="2">
  <advance width="684"/>
  <unicode hex="0067"/>
  <anchor x="342" y="-230" name="bottom"/>
  <anchor x="342" y="535" name="top"/>
  <outline>
    <contour>
      <point x="319" y="-230" type="curve" smooth="yes"/>
      <point x="505.667" y="-230"/>
      <point x="619" y="-128"/>
      <point x="619" y="52" type="curve" smooth="yes"/>
      <point x="619" y="535" type="line"/>
      <point x="431" y="535" type="line"/>
      <point x="420" y="417" type="line"/>
      <point x="461" y="426" type="line"/>
      <point x="447.667" y="495.333"/>
      <point x="366.667" y="546"/>
      <point x="268" y="546" type="curve" smooth="yes"/>
      <point x="130.667" y="546"/>
      <point x="30" y="433.333"/>
      <point x="30" y="272" type="curve" smooth="yes"/>
      <point x="30" y="116"/>
      <point x="131.667" y="15"/>
      <point x="273" y="15" type="curve" smooth="yes"/>
      <point x="363.667" y="15"/>
      <point x="444" y="63"/>
      <point x="460" y="131" type="curve"/>
      <point x="415" y="135" type="line"/>
      <point x="415" y="55" type="line" smooth="yes"/>
      <point x="415" y="-29.849"/>
      <point x="376.333" y="-66"/>
      <point x="283" y="-66" type="curve" smooth="yes"/>
      <point x="223" y="-66"/>
      <point x="174" y="-50"/>
      <point x="130" y="-22" type="curve"/>
      <point x="61" y="-158" type="line"/>
      <point x="121" y="-200.667"/>
      <point x="223" y="-230"/>
    </contour>
    <contour>
      <point x="324" y="160" type="curve" smooth="yes"/>
      <point x="262.667" y="160"/>
      <point x="229" y="199.333"/>
      <point x="229" y="270" type="curve" smooth="yes"/>
      <point x="229" y="340.667"/>
      <point x="262.667" y="381"/>
      <point x="324" y="381" type="curve" smooth="yes"/>
      <point x="385.333" y="381"/>
      <point x="420" y="340.667"/>
      <point x="420" y="270" type="curve" smooth="yes"/>
      <point x="420" y="199.333"/>
      <point x="385.333" y="160"/>
    </contour>
  </outline>
</glyph>
<glyph name="i" format="2">
  <advance width="350"/>
  <unicode hex="0069"/>
  <anchor x="175" y="0" name="bottom"/>
  <anchor x="257" y="0" name="ogonek"/>
  <anchor x="175" y="760" name="top"/>
  <outline>
    <contour>
      <point x="73" y="0" type="line"/>
      <point x="276" y="0" type="line"/>
      <point x="276" y="535" type="line"/>
      <point x="73" y="535" type="line"/>
    </contour>
    <contour>
      <point x="175" y="632" type="curve" smooth="yes"/>
      <point x="246" y="632"/>
      <point x="290" y="672"/>
      <point x="290" y="728" type="curve" smooth="yes"/>
      <point x="290" y="789"/>
      <point x="247" y="824"/>
      <point x="175" y="824" type="curve" smooth="yes"/>
      <point x="104" y="824"/>
      <point x="60" y="784"/>
      <point x="60" y="728" type="curve" smooth="yes"/>
      <point x="60" y="667"/>
      <point x="103" y="632"/>
    </contour>
  </outline>
</glyph>
<glyph name="j" format="2">
  <advance width="353"/>
  <unicode hex="006A"/>
  <outline>
    <contour>
      <point x="33" y="-219" type="line"/>
      <point x="200" y="-219"/>
      <point x="282" y="-155"/>
      <point x="282" y="23" type="curve" smooth="yes"/>
      <point x="282" y="535" type="line"/>
      <point x="79" y="535" type="line"/>
      <point x="79" y="71" type="line" smooth="yes"/>
      <point x="79" y="-39"/>
      <point x="57" y="-62"/>
      <point x="-44" y="-62" type="curve"/>
    </contour>
    <contour>
      <point x="183" y="632" type="curve" smooth="yes"/>
      <point x="254" y="632"/>
      <point x="298" y="672"/>
      <point x="298" y="728" type="curve" smooth="yes"/>
      <point x="298" y="789"/>
      <point x="255" y="824"/>
      <point x="183" y="824" type="curve" smooth="yes"/>
      <point x="112" y="824"/>
      <point x="68" y="784"/>
      <point x="68" y="728" type="curve" smooth="yes"/>
      <point x="68" y="667"/>
      <point x="111" y="632"/>
    </contour>
  </outline>
</glyph>
<glyph name="m" format="2">
  <advance width="993"/>
  <unicode hex="006D"/>
  <anchor x="497" y="0" name="bottom"/>
  <anchor x="497" y="535" name="top"/>
  <outline>
    <contour>
      <point x="70" y="0" type="line"/>
      <point x="273" y="0" type="line"/>
      <point x="273" y="318" type="line" smooth="yes"/>
      <point x="273" y="354"/>
      <point x="300" y="381"/>
      <point x="340" y="381" type="curve" smooth="yes"/>
      <point x="377.333" y="381"/>
      <point x="400" y="357"/>
      <point x="400" y="313" type="curve" smooth="yes"/>
      <point x="400" y="0" type="line"/>
      <point x="603" y="0" type="line"/>
      <point x="603" y="318" type="line" smooth="yes"/>
      <point x="603" y="354"/>
      <point x="630" y="381"/>
      <point x="670" y="381" type="curve" smooth="yes"/>
      <point x="707.333" y="381"/>
      <point x="730" y="357"/>
      <point x="730" y="313" type="curve" smooth="yes"/>
      <point x="730" y="0" type="line"/>
      <point x="933" y="0" type="line"/>
      <point x="933" y="330" type="line" smooth="yes"/>
      <point x="933" y="468.667"/>
      <point x="864" y="546"/>
      <point x="732" y="546" type="curve" smooth="yes"/>
      <point x="668" y="546"/>
      <point x="588" y="517"/>
      <point x="549" y="449" type="curve" smooth="yes"/>
      <point x="541" y="435" type="line"/>
      <point x="572" y="434" type="line"/>
      <point x="538" y="523"/>
      <point x="478.667" y="546"/>
      <point x="408" y="546" type="curve" smooth="yes"/>
      <point x="350.667" y="546"/>
      <point x="282" y="527"/>
      <point x="243" y="459" type="curve"/>
      <point x="266" y="451" type="line"/>
      <point x="258" y="535" type="line"/>
      <point x="70" y="535" type="line"/>
    </contour>
  </outline>
</glyph>
<glyph name="o" format="2">
  <advance width="660"/>
  <unicode hex="006F"/>
  <anchor x="330" y="0" name="bottom"/>
  <anchor x="330" y="268" name="center"/>
  <anchor x="514" y="0" name="ogonek"/>
  <anchor x="330" y="535" name="top"/>
  <anchor x="640" y="535" name="topright"/>
  <outline>
    <contour>
      <point x="331" y="-10" type="curve" smooth="yes"/>
      <point x="504.333" y="-10"/>
      <point x="630" y="106.667"/>
      <point x="630" y="268" type="curve" smooth="yes"/>
      <point x="630" y="429.333"/>
      <point x="504.333" y="546"/>
      <point x="331" y="546" type="curve" smooth="yes"/>
      <point x="156.333" y="546"/>
      <point x="30" y="429.333"/>
      <point x="30" y="268" type="curve" smooth="yes"/>
      <point x="30" y="106.667"/>
      <point x="156.333" y="-10"/>
    </contour>
    <contour>
      <point x="331" y="160" type="curve" smooth="yes"/>
      <point x="275" y="160"/>
      <point x="235" y="205.333"/>
      <point x="235" y="268" type="curve" smooth="yes"/>
      <point x="235" y="332"/>
      <point x="275" y="377"/>
      <point x="331" y="377" type="curve" smooth="yes"/>
      <point x="385.667" y="377"/>
      <point x="425" y="332"/>
      <point x="425" y="268" type="curve" smooth="yes"/>
      <point x="425" y="205.333"/>
      <point x="385.667" y="160"/>
    </contour>
  </outline>
</glyph>
<glyph name="p" format="2">
  <advance width="679"/>
  <unicode hex="0070"/>
  <anchor x="340" y="0" name="bottom"/>
  <anchor x="340" y="535" name="top"/>
  <outline>
    <contour>
      <point x="70" y="-220" type="line"/>
      <point x="274" y="-220" type="line"/>
      <point x="274" y="131" type="line"/>
      <point x="229" y="117" type="line"/>
      <point x="246.333" y="43.667"/>
      <point x="325.333" y="-9"/>
      <point x="416" y="-9" type="curve" smooth="yes"/>
      <point x="552" y="-9"/>
      <point x="649" y="106.667"/>
      <point x="649" y="268" type="curve" smooth="yes"/>
      <point x="649" y="432"/>
      <point x="553" y="546"/>
      <point x="421" y="546" type="curve" smooth="yes"/>
      <point x="322.333" y="546"/>
      <point x="241.333" y="495.333"/>
      <point x="228" y="426" type="curve"/>
      <point x="269" y="417" type="line"/>
      <point x="258" y="535" type="line"/>
      <point x="70" y="535" type="line"/>
    </contour>
    <contour>
      <point x="360" y="156" type="curve" smooth="yes"/>
      <point x="301.333" y="156"/>
      <point x="269" y="196"/>
      <point x="269" y="268" type="curve" smooth="yes"/>
      <point x="269" y="340"/>
      <point x="301.333" y="381"/>
      <point x="360" y="381" type="curve" smooth="yes"/>
      <point x="417.333" y="381"/>
      <point x="450" y="340"/>
      <point x="450" y="268" type="curve" smooth="yes"/>
      <point x="450" y="196"/>
      <point x="417.333" y="156"/>
    </contour>
  </outline>
</glyph>
<glyph name="q" format="2">
  <advance width="679"/>
  <unicode hex="0071"/>
  <anchor x="340" y="0" name="bottom"/>
  <anchor x="340" y="535" name="top"/>
  <outline>
    <contour>
      <point x="405" y="-220" type="line"/>
      <point x="609" y="-220" type="line"/>
      <point x="609" y="535" type="line"/>
      <point x="421" y="535" type="line"/>
      <point x="410" y="417" type="line"/>
      <point x="451" y="426" type="line"/>
      <point x="437.667" y="495.333"/>
      <point x="356.667" y="546"/>
      <point x="258" y="546" type="curve" smooth="yes"/>
      <point x="126" y="546"/>
      <point x="30" y="432"/>
      <point x="30" y="268" type="curve" smooth="yes"/>
      <point x="30" y="106.667"/>
      <point x="127" y="-9"/>
      <point x="263" y="-9" type="curve" smooth="yes"/>
      <point x="353.667" y="-9"/>
      <point x="432.667" y="43.667"/>
      <point x="450" y="117" type="curve"/>
      <point x="405" y="131" type="line"/>
    </contour>
    <contour>
      <point x="319" y="156" type="curve" smooth="yes"/>
      <point x="261.667" y="156"/>
      <point x="229" y="196"/>
      <point x="229" y="268" type="curve" smooth="yes"/>
      <point x="229" y="340"/>
      <point x="261.667" y="381"/>
      <point x="319" y="381" type="curve" smooth="yes"/>
      <point x="377.667" y="381"/>
      <point x="410" y="340"/>
      <point x="410" y="268" type="curve" smooth="yes"/>
      <point x="410" y="196"/>
      <point x="377.667" y="156"/>
    </contour>
  </outline>
</glyph>
<glyph name="r" format="2">
  <advance width="493"/>
  <unicode hex="0072"/>
  <anchor x="247" y="0" name="bottom"/>
  <anchor x="247" y="535" name="top"/>
  <outline>
    <contour>
      <point x="70" y="0" type="line"/>
      <point x="273" y="0" type="line"/>
      <point x="273" y="248" type="line" smooth="yes"/>
      <point x="273" y="300"/>
      <point x="299.667" y="331"/>
      <point x="349" y="331" type="curve" smooth="yes"/>
      <point x="382.333" y="331"/>
      <point x="413.667" y="321.333"/>
      <point x="427" y="312" type="curve"/>
      <point x="483" y="537" type="line"/>
      <point x="463" y="542.333"/>
      <point x="442" y="546"/>
      <point x="418" y="546" type="curve" smooth="yes"/>
      <point x="327.333" y="546"/>
      <point x="250.333" y="477"/>
      <point x="225" y="385" type="curve"/>
      <point x="270" y="357" type="line"/>
      <point x="258" y="535" type="line"/>
      <point x="70" y="535" type="line"/>
    </contour>
  </outline>
</glyph>
<glyph name="t" format="2">
  <advance width="409"/>
  <unicode hex="0074"/>
  <anchor x="205" y="0" name="bottom"/>
  <anchor x="205" y="268" name="center"/>
  <anchor x="201" y="612" name="top"/>
  <anchor x="305" y="860" name="topright"/>
  <outline>
    <contour>
      <point x="98" y="0" type="line"/>
      <point x="301" y="0" type="line"/>
      <point x="301" y="670" type="line"/>
      <point x="98" y="670" type="line"/>
    </contour>
    <contour>
      <point x="15" y="365" type="line"/>
      <point x="389" y="365" type="line"/>
      <point x="389" y="535" type="line"/>
      <point x="15" y="535" type="line"/>
    </contour>
  </outline>
</glyph>
<glyph name="u" format="2">
  <advance width="669"/>
  <unicode hex="0075"/>
  <anchor x="335" y="0" name="bottom"/>
  <anchor x="557" y="0" name="ogonek"/>
  <anchor x="335" y="535" name="top"/>
  <anchor x="649" y="535" name="topright"/>
  <outline>
    <contour>
      <point x="249" y="-11" type="curve" smooth="yes"/>
      <point x="337" y="-11"/>
      <point x="415.667" y="44"/>
      <point x="437" y="120" type="curve"/>
      <point x="399" y="108" type="line"/>
      <point x="411" y="0" type="line"/>
      <point x="597" y="0" type="line"/>
      <point x="597" y="535" type="line"/>
      <point x="394" y="535" type="line"/>
      <point x="394" y="217" type="line" smooth="yes"/>
      <point x="394" y="181"/>
      <point x="366" y="154"/>
      <point x="326" y="154" type="curve" smooth="yes"/>
      <point x="286" y="154"/>
      <point x="263" y="178"/>
      <point x="263" y="222" type="curve" smooth="yes"/>
      <point x="263" y="535" type="line"/>
      <point x="60" y="535" type="line"/>
      <point x="60" y="205" type="line" smooth="yes"/>
      <point x="60" y="66.333"/>
      <point x="127.667" y="-11"/>
    </contour>
  </outline>
</glyph>
<glyph name="cent" format="2">
  <advance width="583"/>
  <unicode hex="00A2"/>
  <outline>
    <contour>
      <point x="341" y="78" type="curve" smooth="yes"/>
      <point x="437" y="78"/>
      <point x="522.667" y="108.333"/>
      <point x="572" y="163" type="curve"/>
      <point x="463" y="294" type="line"/>
      <point x="440.333" y="268.667"/>
      <point x="408.333" y="252"/>
      <point x="359" y="252" type="curve" smooth="yes"/>
      <point x="289.667" y="252"/>
      <point x="250" y="297"/>
      <point x="250" y="357" type="curve" smooth="yes"/>
      <point x="250" y="418.333"/>
      <point x="292.333" y="461"/>
      <point x="359" y="461" type="curve" smooth="yes"/>
      <point x="408.333" y="461"/>
      <point x="440.333" y="442"/>
      <point x="463" y="418" type="curve"/>
      <point x="573" y="548" type="line"/>
      <point x="522.333" y="604"/>
      <point x="437" y="634"/>
      <point x="341" y="634" type="curve" smooth="yes"/>
      <point x="173" y="634"/>
      <point x="50" y="517.333"/>
      <point x="50" y="356" type="curve" smooth="yes"/>
      <point x="50" y="194.667"/>
      <point x="173" y="78"/>
    </contour>
    <contour>
      <point x="284" y="0" type="line"/>
      <point x="421" y="0" type="line"/>
      <point x="421" y="107" type="line"/>
      <point x="388" y="145" type="line"/>
      <point x="388" y="550" type="line"/>
      <point x="421" y="605" type="line"/>
      <point x="421" y="710" type="line"/>
      <point x="284" y="710" type="line"/>
      <point x="284" y="606" type="line"/>
      <point x="324" y="550" type="line"/>
      <point x="324" y="146" type="line"/>
      <point x="284" y="108" type="line"/>
    </contour>
  </outline>
</glyph>
<glyph name="paragraph" format="2">
  <advance width="801"/>
  <unicode hex="00B6"/>
  <outline>
    <contour>
      <point x="248" y="0" type="line"/>
      <point x="456" y="0" type="line"/>
      <point x="456" y="652" type="line"/>
      <point x="352" y="596" type="line"/>
      <point x="589" y="596" type="line"/>
      <point x="513" y="660" type="line"/>
      <point x="513" y="0" type="line"/>
      <point x="721" y="0" type="line"/>
      <point x="721" y="700" type="line"/>
      <point x="265" y="700" type="line" smooth="yes"/>
      <point x="129" y="700"/>
      <point x="40" y="613"/>
      <point x="40" y="481" type="curve" smooth="yes"/>
      <point x="40" y="358.333"/>
      <point x="120" y="269"/>
      <point x="228" y="269" type="curve" smooth="yes"/>
      <point x="312" y="269" type="line"/>
      <point x="248" y="314" type="line"/>
    </contour>
  </outline>
</glyph>
<glyph name="AE" format="2">
  <advance width="1154"/>
  <unicode hex="00C6"/>
  <anchor x="577" y="0" name="bottom"/>
  <anchor x="705" y="700" name="top"/>
  <outline>
    <contour>
      <point x="-20" y="0" type="line"/>
      <point x="221" y="0" type="line"/>
      <point x="597" y="550" type="line"/>
      <point x="572" y="558" type="line"/>
      <point x="572" y="299" type="line"/>
      <point x="409" y="299" type="line"/>
      <point x="297" y="135" type="line"/>
      <point x="572" y="135" type="line"/>
      <point x="572" y="0" type="line"/>
      <point x="1107" y="0" type="line"/>
      <point x="1107" y="175" type="line"/>
      <point x="779" y="175" type="line"/>
      <point x="779" y="272" type="line"/>
      <point x="1062" y="272" type="line"/>
      <point x="1062" y="436" type="line"/>
      <point x="779" y="436" type="line"/>
      <point x="779" y="525" type="line"/>
      <point x="1107" y="525" type="line"/>
      <point x="1107" y="700" type="line"/>
      <point x="468" y="700" type="line"/>
    </contour>
  </outline>
</glyph>
<glyph name="Eth" format="2">
  <advance width="790"/>
  <unicode hex="00D0"/>
  <anchor x="395" y="0" name="bottom"/>
  <anchor x="209" y="350" name="center"/>
  <anchor x="395" y="700" name="top"/>
  <outline>
    <contour>
      <point x="25" y="280" type="line"/>
      <point x="393" y="280" type="line"/>
      <point x="393" y="420" type="line"/>
      <point x="25" y="420" type="line"/>
    </contour>
    <component base="D"/>
  </outline>
</glyph>
<glyph name="Oslash" format="2">
  <advance width="834"/>
  <unicode hex="00D8"/>
  <anchor x="417" y="0" name="bottom"/>
  <anchor x="417" y="700" name="top"/>
  <anchor x="417" y="350" name="center"/>
  <anchor x="751" y="10" name="ogonek"/>
  <anchor x="20" y="700" name="topleft"/>
  <anchor x="814" y="700" name="topright"/>
  <outline>
    <contour>
      <point x="151" y="-33" type="line"/>
      <point x="745" y="694" type="line"/>
      <point x="677" y="741" type="line"/>
      <point x="88" y="20" type="line"/>
    </contour>
    <component base="O"/>
  </outline>
</glyph>
<glyph name="germandbls" format="2">
  <advance width="670"/>
  <unicode hex="00DF"/>
  <anchor x="335" y="0" name="bottom"/>
  <anchor x="335" y="535" name="top"/>
  <outline>
    <contour>
      <point x="430" y="-10" type="curve" smooth="yes"/>
      <point x="563.333" y="-10"/>
      <point x="660" y="81.667"/>
      <point x="660" y="203" type="curve" smooth="yes"/>
      <point x="660" y="321.667"/>
      <point x="581" y="396"/>
      <point x="465" y="432" type="curve"/>
      <point x="467" y="373" type="line"/>
      <point x="541.667" y="405"/>
      <point x="585" y="487"/>
      <point x="585" y="559" type="curve" smooth="yes"/>
      <point x="585" y="673.667"/>
      <point x="476.667" y="734"/>
      <point x="346" y="734" type="curve" smooth="yes"/>
      <point x="179.333" y="734"/>
      <point x="86" y="639"/>
      <point x="86" y="499" type="curve" smooth="yes"/>
      <point x="86" y="0" type="line"/>
      <point x="289" y="0" type="line"/>
      <point x="289" y="495" type="line" smooth="yes"/>
      <point x="289" y="528.333"/>
      <point x="302" y="549"/>
      <point x="338" y="549" type="curve" smooth="yes"/>
      <point x="372.667" y="549"/>
      <point x="395" y="531"/>
      <point x="395" y="495" type="curve" smooth="yes"/>
      <point x="395" y="459"/>
      <point x="383.333" y="440.667"/>
      <point x="342" y="422" type="curve"/>
      <point x="342" y="322" type="line"/>
      <point x="390" y="296"/>
      <point x="463" y="265"/>
      <point x="463" y="211" type="curve" smooth="yes"/>
      <point x="463" y="180.333"/>
      <point x="446.667" y="167"/>
      <point x="420" y="167" type="curve" smooth="yes"/>
      <point x="406.667" y="167"/>
      <point x="397" y="169.333"/>
      <point x="381" y="180" type="curve"/>
      <point x="310" y="29" type="line"/>
      <point x="340.667" y="3.667"/>
      <point x="380.667" y="-10"/>
    </contour>
    <contour>
      <point x="13" y="335" type="line"/>
      <point x="176" y="335" type="line"/>
      <point x="176" y="505" type="line"/>
      <point x="13" y="505" type="line"/>
    </contour>
  </outline>
</glyph>
<glyph name="divide" format="2">
  <advance width="597"/>
  <unicode hex="00F7"/>
  <outline>
    <contour>
      <point x="38" y="188" type="line"/>
      <point x="560" y="188" type="line"/>
      <point x="560" y="348" type="line"/>
      <point x="38" y="348" type="line"/>
    </contour>
    <contour>
      <point x="299" y="-52" type="curve" smooth="yes"/>
      <point x="366.171" y="-52"/>
      <point x="408" y="-10.667"/>
      <point x="408" y="48" type="curve" smooth="yes"/>
      <point x="408" y="112"/>
      <point x="367.392" y="148"/>
      <point x="299" y="148" type="curve" smooth="yes"/>
      <point x="231.829" y="148"/>
      <point x="190" y="106.667"/>
      <point x="190" y="48" type="curve" smooth="yes"/>
      <point x="190" y="-16"/>
      <point x="230.608" y="-52"/>
    </contour>
    <contour>
      <point x="299" y="388" type="curve" smooth="yes"/>
      <point x="366.171" y="388"/>
      <point x="408" y="429.333"/>
      <point x="408" y="488" type="curve" smooth="yes"/>
      <point x="408" y="552"/>
      <point x="367.392" y="588"/>
      <point x="299" y="588" type="curve" smooth="yes"/>
      <point x="231.829" y="588"/>
      <point x="190" y="546.667"/>
      <point x="190" y="488" type="curve" smooth="yes"/>
      <point x="190" y="424"/>
      <point x="230.608" y="388"/>
    </contour>
  </outline>
</glyph>
<glyph name="oslash" format="2">
  <advance width="660"/>
  <unicode hex="00F8"/>
  <anchor x="330" y="535" name="top"/>
  <anchor x="330" y="0" name="bottom"/>
  <anchor x="330" y="268" name="center"/>
  <anchor x="514" y="0" name="ogonek"/>
  <anchor x="640" y="535" name="topright"/>
  <outline>
    <contour>
      <point x="130" y="-35" type="line"/>
      <point x="600" y="522" type="line"/>
      <point x="533" y="571" type="line"/>
      <point x="64" y="13" type="line"/>
    </contour>
    <component base="o"/>
  </outline>
</glyph>
<glyph name="dcroat" format="2">
  <advance width="669"/>
  <unicode hex="0111"/>
  <anchor x="465" y="634" name="_center"/>
  <anchor x="335" y="0" name="bottom"/>
  <anchor x="465" y="634" name="center"/>
  <anchor x="335" y="740" name="top"/>
  <anchor x="639" y="740" name="topright"/>
  <outline>
    <contour>
      <point x="281" y="564" type="line"/>
      <point x="649" y="564" type="line"/>
      <point x="649" y="704" type="line"/>
      <point x="281" y="704" type="line"/>
    </contour>
    <component base="d"/>
  </outline>
</glyph>
<glyph name="hbar" format="2">
  <advance width="665"/>
  <unicode hex="0127"/>
  <anchor x="333" y="0" name="bottom"/>
  <anchor x="198" y="637" name="center"/>
  <anchor x="333" y="740" name="top"/>
  <outline>
    <contour>
      <point x="14" y="567" type="line"/>
      <point x="382" y="567" type="line"/>
      <point x="382" y="707" type="line"/>
      <point x="14" y="707" type="line"/>
    </contour>
    <component base="h"/>
  </outline>
</glyph>
<glyph name="kgreenlandic" format="2">
  <advance width="685"/>
  <unicode hex="0138"/>
  <anchor x="343" y="0" name="bottom"/>
  <anchor x="343" y="535" name="top"/>
  <outline>
    <contour>
      <point x="269" y="120" type="line"/>
      <point x="680" y="535" type="line"/>
      <point x="416" y="535" type="line"/>
      <point x="169" y="246" type="line"/>
    </contour>
    <contour>
      <point x="70" y="0" type="line"/>
      <point x="273" y="0" type="line"/>
      <point x="273" y="535" type="line"/>
      <point x="70" y="535" type="line"/>
    </contour>
    <contour>
      <point x="434" y="0" type="line"/>
      <point x="666" y="0" type="line"/>
      <point x="408" y="353" type="line"/>
      <point x="266" y="251" type="line"/>
    </contour>
  </outline>
</glyph>
<glyph name="Lslash" format="2">
  <advance width="616"/>
  <unicode hex="0141"/>
  <anchor x="308" y="0" name="bottom"/>
  <anchor x="191" y="350" name="center"/>
  <anchor x="190" y="700" name="top"/>
  <anchor x="369" y="700" name="topright"/>
  <outline>
    <contour>
      <point x="18" y="224" type="line"/>
      <point x="425" y="401" type="line"/>
      <point x="363" y="564" type="line"/>
      <point x="-44" y="387" type="line"/>
    </contour>
    <component base="L"/>
  </outline>
</glyph>
<glyph name="lslash" format="2">
  <advance width="469"/>
  <unicode hex="0142"/>
  <anchor x="236" y="0" name="bottom"/>
  <anchor x="236" y="370" name="center"/>
  <anchor x="236" y="740" name="top"/>
  <anchor x="387" y="740" name="topright"/>
  <outline>
    <contour>
      <point x="62" y="224" type="line"/>
      <point x="469" y="401" type="line"/>
      <point x="407" y="564" type="line"/>
      <point x="0" y="387" type="line"/>
    </contour>
    <component base="l" xOffset="64"/>
  </outline>
</glyph>
<glyph name="Eng" format="2">
  <advance width="817"/>
  <unicode hex="014A"/>
  <outline>
    <contour>
      <point x="482" y="-207" type="line"/>
      <point x="644.667" y="-207"/>
      <point x="737" y="-152"/>
      <point x="737" y="0" type="curve" smooth="yes"/>
      <point x="737" y="700" type="line"/>
      <point x="529" y="700" type="line"/>
      <point x="529" y="570" type="line" smooth="yes"/>
      <point x="527.667" y="459.333"/>
      <point x="530" y="426"/>
      <point x="546" y="298" type="curve"/>
      <point x="560" y="304" type="line"/>
      <point x="273" y="700" type="line"/>
      <point x="80" y="700" type="line"/>
      <point x="80" y="0" type="line"/>
      <point x="288" y="0" type="line"/>
      <point x="288" y="233.5" type="line" smooth="yes"/>
      <point x="288" y="276"/>
      <point x="282" y="347"/>
      <point x="278" y="390" type="curve"/>
      <point x="263" y="384" type="line"/>
      <point x="545" y="-3" type="line"/>
      <point x="537" y="49" type="line"/>
      <point x="537" y="0" type="line" smooth="yes"/>
      <point x="537" y="-34.667"/>
      <point x="451.333" y="-48"/>
      <point x="394" y="-48" type="curve"/>
    </contour>
  </outline>
</glyph>
<glyph name="oe" format="2">
  <advance width="992"/>
  <unicode hex="0153"/>
  <anchor x="529" y="0" name="bottom"/>
  <anchor x="532" y="530" name="top"/>
  <outline>
    <contour>
      <point x="331" y="-10" type="curve" smooth="yes"/>
      <point x="421" y="-10"/>
      <point x="498" y="21"/>
      <point x="542" y="84" type="curve"/>
      <point x="510" y="84" type="line"/>
      <point x="562" y="21"/>
      <point x="639" y="-10"/>
      <point x="735" y="-10" type="curve" smooth="yes"/>
      <point x="807" y="-10"/>
      <point x="873" y="8"/>
      <point x="948" y="65" type="curve"/>
      <point x="855" y="196" type="line"/>
      <point x="819" y="173"/>
      <point x="791" y="164"/>
      <point x="747" y="164" type="curve" smooth="yes"/>
      <point x="653" y="164"/>
      <point x="622" y="211"/>
      <point x="622" y="287" type="curve" smooth="yes"/>
      <point x="622" y="332"/>
      <point x="638" y="383"/>
      <point x="708" y="383" type="curve" smooth="yes"/>
      <point x="757" y="383"/>
      <point x="787" y="358"/>
      <point x="787" y="319" type="curve" smooth="yes"/>
      <point x="787" y="287" type="line"/>
      <point x="832" y="321" type="line"/>
      <point x="610" y="321" type="line"/>
      <point x="618" y="226" type="line"/>
      <point x="967" y="226" type="line"/>
      <point x="968" y="268" type="line" smooth="yes"/>
      <point x="972" y="429"/>
      <point x="864" y="546"/>
      <point x="707" y="546" type="curve" smooth="yes"/>
      <point x="626" y="546"/>
      <point x="559" y="515"/>
      <point x="516" y="457" type="curve"/>
      <point x="549" y="457" type="line"/>
      <point x="496" y="515"/>
      <point x="420" y="546"/>
      <point x="331" y="546" type="curve" smooth="yes"/>
      <point x="156.333" y="546"/>
      <point x="30" y="429.333"/>
      <point x="30" y="268" type="curve" smooth="yes"/>
      <point x="30" y="106.667"/>
      <point x="156.333" y="-10"/>
    </contour>
    <contour>
      <point x="331" y="160" type="curve" smooth="yes"/>
      <point x="275" y="160"/>
      <point x="235" y="205.333"/>
      <point x="235" y="268" type="curve" smooth="yes"/>
      <point x="235" y="332"/>
      <point x="275" y="377"/>
      <point x="331" y="377" type="curve" smooth="yes"/>
      <point x="385.667" y="377"/>
      <point x="425" y="332"/>
      <point x="425" y="268" type="curve" smooth="yes"/>
      <point x="425" y="205.333"/>
      <point x="385.667" y="160"/>
    </contour>
  </outline>
</glyph>
<glyph name="Tbar" format="2">
  <advance width="714"/>
  <unicode hex="0166"/>
  <anchor x="357" y="0" name="bottom"/>
  <anchor x="357" y="350" name="center"/>
  <anchor x="357" y="700" name="top"/>
  <outline>
    <contour>
      <point x="180" y="281" type="line"/>
      <point x="548" y="281" type="line"/>
      <point x="548" y="421" type="line"/>
      <point x="180" y="421" type="line"/>
    </contour>
    <component base="T"/>
  </outline>
</glyph>
<glyph name="florin" format="2">
  <advance width="585"/>
  <unicode hex="0192"/>
  <outline>
    <contour>
      <point x="122" y="-31" type="curve" smooth="yes"/>
      <point x="259.835" y="-31"/>
      <point x="346.667" y="35.333"/>
      <point x="372" y="182" type="curve" smooth="yes"/>
      <point x="420" y="466" type="line" smooth="yes"/>
      <point x="425.333" y="495.333"/>
      <point x="436.667" y="518"/>
      <point x="466" y="518" type="curve" smooth="yes"/>
      <point x="487.872" y="518"/>
      <point x="501" y="512.333"/>
      <point x="521" y="495" type="curve"/>
      <point x="593" y="665" type="line"/>
      <point x="549" y="693"/>
      <point x="504.697" y="705"/>
      <point x="452" y="705" type="curve" smooth="yes"/>
      <point x="321.884" y="705"/>
      <point x="237.333" y="644.667"/>
      <point x="216" y="510" type="curve" smooth="yes"/>
      <point x="171" y="231" type="line" smooth="yes"/>
      <point x="161.667" y="181.667"/>
      <point x="145.333" y="156"/>
      <point x="120" y="156" type="curve" smooth="yes"/>
      <point x="97.333" y="156"/>
      <point x="83.333" y="160.333"/>
      <point x="62" y="171" type="curve"/>
      <point x="-10" y="1" type="line"/>
      <point x="28.667" y="-23"/>
      <point x="72.667" y="-31"/>
    </contour>
    <contour>
      <point x="97" y="272" type="line"/>
      <point x="496" y="271" type="line"/>
      <point x="496" y="434" type="line"/>
      <point x="97" y="435" type="line"/>
    </contour>
  </outline>
</glyph>
<glyph name="ohorn" format="2">
  <advance width="660"/>
  <unicode hex="01A1"/>
  <anchor x="330" y="0" name="bottom"/>
  <anchor x="330" y="535" name="top"/>
  <outline>
    <contour>
      <point x="331" y="-10" type="curve" smooth="yes"/>
      <point x="504.333" y="-10"/>
      <point x="630" y="106.667"/>
      <point x="630" y="268" type="curve" smooth="yes"/>
      <point x="630" y="352"/>
      <point x="596" y="423"/>
      <point x="539" y="473" type="curve"/>
      <point x="522" y="449" type="line"/>
      <point x="624" y="468"/>
      <point x="666" y="555"/>
      <point x="666" y="649" type="curve"/>
      <point x="514" y="649" type="line"/>
      <point x="514" y="575"/>
      <point x="483" y="535"/>
      <point x="427" y="535" type="curve" smooth="yes"/>
      <point x="416" y="535"/>
      <point x="402" y="538"/>
      <point x="386" y="541" type="curve" smooth="yes"/>
      <point x="368" y="544"/>
      <point x="348" y="546"/>
      <point x="331" y="546" type="curve" smooth="yes"/>
      <point x="156.333" y="546"/>
      <point x="30" y="429.333"/>
      <point x="30" y="268" type="curve" smooth="yes"/>
      <point x="30" y="106.667"/>
      <point x="156.333" y="-10"/>
    </contour>
    <contour>
      <point x="331" y="160" type="curve" smooth="yes"/>
      <point x="275" y="160"/>
      <point x="235" y="205.333"/>
      <point x="235" y="268" type="curve" smooth="yes"/>
      <point x="235" y="332"/>
      <point x="275" y="377"/>
      <point x="331" y="377" type="curve" smooth="yes"/>
      <point x="385.667" y="377"/>
      <point x="425" y="332"/>
      <point x="425" y="268" type="curve" smooth="yes"/>
      <point x="425" y="205.333"/>
      <point x="385.667" y="160"/>
    </contour>
  </outline>
</glyph>
<glyph name="uhorn" format="2">
  <advance width="669"/>
  <unicode hex="01B0"/>
  <anchor x="335" y="0" name="bottom"/>
  <anchor x="335" y="535" name="top"/>
  <outline>
    <contour>
      <point x="249" y="-11" type="curve" smooth="yes"/>
      <point x="322" y="-11"/>
      <point x="388" y="26"/>
      <point x="421" y="82" type="curve"/>
      <point x="399" y="104" type="line"/>
      <point x="411" y="0" type="line"/>
      <point x="597" y="0" type="line"/>
      <point x="597" y="486" type="line"/>
      <point x="555" y="450" type="line"/>
      <point x="661" y="450"/>
      <point x="713" y="546"/>
      <point x="713" y="649" type="curve"/>
      <point x="561" y="649" type="line"/>
      <point x="561" y="564"/>
      <point x="532" y="535"/>
      <point x="394" y="535" type="curve"/>
      <point x="394" y="217" type="line" smooth="yes"/>
      <point x="394" y="181"/>
      <point x="366" y="154"/>
      <point x="326" y="154" type="curve" smooth="yes"/>
      <point x="286" y="154"/>
      <point x="263" y="178"/>
      <point x="263" y="222" type="curve" smooth="yes"/>
      <point x="263" y="535" type="line"/>
      <point x="60" y="535" type="line"/>
      <point x="60" y="205" type="line" smooth="yes"/>
      <point x="60" y="66.333"/>
      <point x="127.667" y="-11"/>
    </contour>
  </outline>
</glyph>
<glyph name="jdotless" format="2">
  <advance width="353"/>
  <unicode hex="0237"/>
  <anchor x="172" y="-230" name="bottom"/>
  <anchor x="183" y="535" name="top"/>
  <outline>
    <contour>
      <point x="33" y="-219" type="line"/>
      <point x="200" y="-219"/>
      <point x="282" y="-155"/>
      <point x="282" y="23" type="curve" smooth="yes"/>
      <point x="282" y="535" type="line"/>
      <point x="79" y="535" type="line"/>
      <point x="79" y="71" type="line" smooth="yes"/>
      <point x="79" y="-39"/>
      <point x="57" y="-62"/>
      <point x="-44" y="-62" type="curve"/>
    </contour>
  </outline>
</glyph>
<glyph name="nhookleft" format="2">
  <advance width="674"/>
  <unicode hex="0272"/>
  <outline>
    <contour>
      <point x="33" y="-219" type="line"/>
      <point x="195" y="-219"/>
      <point x="278" y="-141"/>
      <point x="282" y="22" type="curve" smooth="yes"/>
      <point x="282" y="318" type="line" smooth="yes"/>
      <point x="282" y="354"/>
      <point x="310" y="381"/>
      <point x="350" y="381" type="curve" smooth="yes"/>
      <point x="389" y="381"/>
      <point x="411" y="357"/>
      <point x="411" y="313" type="curve" smooth="yes"/>
      <point x="411" y="0" type="line"/>
      <point x="614" y="0" type="line"/>
      <point x="614" y="330" type="line" smooth="yes"/>
      <point x="614" y="469"/>
      <point x="547" y="546"/>
      <point x="427" y="546" type="curve" smooth="yes"/>
      <point x="355" y="546"/>
      <point x="289" y="511"/>
      <point x="255" y="459" type="curve"/>
      <point x="276" y="436" type="line"/>
      <point x="267" y="535" type="line"/>
      <point x="79" y="535" type="line"/>
      <point x="79" y="45" type="line" smooth="yes"/>
      <point x="79" y="-43"/>
      <point x="57" y="-62"/>
      <point x="-44" y="-62" type="curve"/>
    </contour>
  </outline>
</glyph>
<glyph name="acutecomb" format="2">
  <unicode hex="0301"/>
  <anchor x="250" y="525" name="_top"/>
  <anchor x="250" y="740" name="top"/>
  <outline>
    <contour>
      <point x="165" y="556" type="line"/>
      <point x="393" y="678" type="line"/>
      <point x="313" y="799" type="line"/>
      <point x="107" y="645" type="line"/>
    </contour>
  </outline>
</glyph>
<glyph name="circumflexcomb" format="2">
  <unicode hex="0302"/>
  <anchor x="250" y="525" name="_top"/>
  <anchor x="250" y="750" name="top"/>
  <outline>
    <contour>
      <point x="105" y="586" type="line"/>
      <point x="265" y="682" type="line"/>
      <point x="235" y="682" type="line"/>
      <point x="395" y="586" type="line"/>
      <point x="467" y="648" type="line"/>
      <point x="301" y="790" type="line"/>
      <point x="199" y="790" type="line"/>
      <point x="33" y="648" type="line"/>
    </contour>
  </outline>
</glyph>
<glyph name="dotaccentcomb" format="2">
  <unicode hex="0307"/>
  <anchor x="250" y="525" name="_top"/>
  <anchor x="250" y="760" name="top"/>
  <outline>
    <contour>
      <point x="250" y="622" type="curve" smooth="yes"/>
      <point x="321" y="622"/>
      <point x="365" y="662"/>
      <point x="365" y="718" type="curve" smooth="yes"/>
      <point x="365" y="779"/>
      <point x="322" y="814"/>
      <point x="250" y="814" type="curve" smooth="yes"/>
      <point x="179" y="814"/>
      <point x="135" y="774"/>
      <point x="135" y="718" type="curve" smooth="yes"/>
      <point x="135" y="657"/>
      <point x="178" y="622"/>
    </contour>
  </outline>
</glyph>
<glyph name="dieresiscomb" format="2">
  <unicode hex="0308"/>
  <anchor x="251" y="525" name="_top"/>
  <anchor x="251" y="740" name="top"/>
  <outline>
    <contour>
      <point x="386" y="578" type="curve" smooth="yes"/>
      <point x="447" y="578"/>
      <point x="486" y="619"/>
      <point x="486" y="678" type="curve" smooth="yes"/>
      <point x="486" y="743"/>
      <point x="450" y="778"/>
      <point x="386" y="778" type="curve" smooth="yes"/>
      <point x="325" y="778"/>
      <point x="286" y="737"/>
      <point x="286" y="678" type="curve" smooth="yes"/>
      <point x="286" y="614"/>
      <point x="322" y="578"/>
    </contour>
    <contour>
      <point x="115" y="578" type="curve" smooth="yes"/>
      <point x="176" y="578"/>
      <point x="215" y="619"/>
      <point x="215" y="678" type="curve" smooth="yes"/>
      <point x="215" y="743"/>
      <point x="179" y="778"/>
      <point x="115" y="778" type="curve" smooth="yes"/>
      <point x="54" y="778"/>
      <point x="15" y="737"/>
      <point x="15" y="678" type="curve" smooth="yes"/>
      <point x="15" y="614"/>
      <point x="51" y="578"/>
    </contour>
  </outline>
</glyph>
<glyph name="hungarumlautcomb" format="2">
  <unicode hex="030B"/>
  <anchor x="250" y="525" name="_top"/>
  <anchor x="250" y="750" name="top"/>
  <outline>
    <contour>
      <point x="310" y="568" type="line"/>
      <point x="492" y="725" type="line"/>
      <point x="383" y="821" type="line"/>
      <point x="224" y="619" type="line"/>
    </contour>
    <contour>
      <point x="100" y="563" type="line"/>
      <point x="266" y="736" type="line"/>
      <point x="149" y="822" type="line"/>
      <point x="8" y="608" type="line"/>
    </contour>
  </outline>
</glyph>
<glyph name="dblgravecomb" format="2">
  <unicode hex="030F"/>
  <anchor x="309" y="525" name="_top"/>
  <anchor x="250" y="750" name="top"/>
  <outline>
    <contour>
      <point x="400" y="563" type="line"/>
      <point x="492" y="608" type="line"/>
      <point x="351" y="822" type="line"/>
      <point x="234" y="736" type="line"/>
    </contour>
    <contour>
      <point x="190" y="568" type="line"/>
      <point x="276" y="619" type="line"/>
      <point x="117" y="821" type="line"/>
      <point x="8" y="725" type="line"/>
    </contour>
  </outline>
</glyph>
<glyph name="breveinvertedcomb" format="2">
  <unicode hex="0311"/>
  <anchor x="250" y="525" name="_top"/>
  <anchor x="250" y="750" name="top"/>
  <outline>
    <contour>
      <point x="182" y="610" type="line"/>
      <point x="194" y="645"/>
      <point x="222" y="665"/>
      <point x="250" y="665" type="curve" smooth="yes"/>
      <point x="278" y="665"/>
      <point x="306" y="645"/>
      <point x="318" y="610" type="curve"/>
      <point x="442" y="622" type="line"/>
      <point x="422" y="725"/>
      <point x="347" y="786"/>
      <point x="250" y="786" type="curve" smooth="yes"/>
      <point x="153" y="786"/>
      <point x="78" y="725"/>
      <point x="58" y="622" type="curve"/>
    </contour>
  </outline>
</glyph>
<glyph name="horncomb" format="2">
  <unicode hex="031B"/>
  <anchor x="173" y="582" name="_topright"/>
  <anchor x="434" y="696" name="topright"/>
  <outline>
    <contour>
      <point x="173" y="460" type="line"/>
      <point x="326" y="460"/>
      <point x="414" y="562"/>
      <point x="414" y="696" type="curve"/>
      <point x="262" y="696" type="line"/>
      <point x="262" y="620"/>
      <point x="233" y="582"/>
      <point x="173" y="582" type="curve"/>
    </contour>
  </outline>
</glyph>
<glyph name="dieresisbelowcomb" format="2">
  <unicode hex="0324"/>
  <anchor x="250" y="0" name="_bottom"/>
  <anchor x="250" y="-238" name="bottom"/>
  <outline>
    <contour>
      <point x="385" y="-238" type="curve" smooth="yes"/>
      <point x="446" y="-238"/>
      <point x="485" y="-197"/>
      <point x="485" y="-138" type="curve" smooth="yes"/>
      <point x="485" y="-73"/>
      <point x="449" y="-38"/>
      <point x="385" y="-38" type="curve" smooth="yes"/>
      <point x="324" y="-38"/>
      <point x="285" y="-79"/>
      <point x="285" y="-138" type="curve" smooth="yes"/>
      <point x="285" y="-202"/>
      <point x="321" y="-238"/>
    </contour>
    <contour>
      <point x="114" y="-238" type="curve" smooth="yes"/>
      <point x="175" y="-238"/>
      <point x="214" y="-197"/>
      <point x="214" y="-138" type="curve" smooth="yes"/>
      <point x="214" y="-73"/>
      <point x="178" y="-38"/>
      <point x="114" y="-38" type="curve" smooth="yes"/>
      <point x="53" y="-38"/>
      <point x="14" y="-79"/>
      <point x="14" y="-138" type="curve" smooth="yes"/>
      <point x="14" y="-202"/>
      <point x="50" y="-238"/>
    </contour>
  </outline>
</glyph>
<glyph name="ogonekcomb" format="2">
  <unicode hex="0328"/>
  <anchor x="340" y="0" name="_ogonek"/>
  <outline>
    <contour>
      <point x="247" y="-219" type="curve" smooth="yes"/>
      <point x="304" y="-219"/>
      <point x="352" y="-172"/>
      <point x="376" y="-132" type="curve"/>
      <point x="296" y="-73" type="line"/>
      <point x="285" y="-89"/>
      <point x="279" y="-96"/>
      <point x="267" y="-96" type="curve" smooth="yes"/>
      <point x="252" y="-96"/>
      <point x="244" y="-87"/>
      <point x="244" y="-74" type="curve" smooth="yes"/>
      <point x="244" y="-41"/>
      <point x="287" y="-12"/>
      <point x="340" y="0" type="curve"/>
      <point x="296" y="50" type="line"/>
      <point x="174" y="18"/>
      <point x="118" y="-33"/>
      <point x="118" y="-102" type="curve" smooth="yes"/>
      <point x="118" y="-169"/>
      <point x="172" y="-219"/>
    </contour>
  </outline>
</glyph>
<glyph name="macronbelowcomb" format="2">
  <unicode hex="0331"/>
  <anchor x="250" y="0" name="_bottom"/>
  <anchor x="250" y="-213" name="bottom"/>
  <outline>
    <contour>
      <point x="88" y="-213" type="line"/>
      <point x="412" y="-213" type="line"/>
      <point x="412" y="-63" type="line"/>
      <point x="88" y="-63" type="line"/>
    </contour>
  </outline>
</glyph>
<glyph name="quoteleft" format="2">
  <advance width="302"/>
  <unicode hex="2018"/>
  <outline>
    <contour>
      <point x="153" y="396" type="curve" smooth="yes"/>
      <point x="209" y="396"/>
      <point x="249" y="426"/>
      <point x="249" y="474" type="curve" smooth="yes"/>
      <point x="249" y="506"/>
      <point x="237" y="530"/>
      <point x="204" y="551" type="curve" smooth="yes"/>
      <point x="179" y="566"/>
      <point x="176" y="580"/>
      <point x="176" y="592" type="curve" smooth="yes"/>
      <point x="176" y="619"/>
      <point x="213" y="664"/>
      <point x="272" y="687" type="curve"/>
      <point x="220" y="751" type="line"/>
      <point x="115" y="723"/>
      <point x="40" y="626"/>
      <point x="40" y="531" type="curve" smooth="yes"/>
      <point x="40" y="451"/>
      <point x="89" y="396"/>
    </contour>
  </outline>
</glyph>
<glyph name="quoteright" format="2">
  <advance width="302"/>
  <unicode hex="2019"/>
  <outline>
    <contour>
      <point x="82" y="395" type="line"/>
      <point x="187" y="423"/>
      <point x="262" y="520"/>
      <point x="262" y="615" type="curve" smooth="yes"/>
      <point x="262" y="695"/>
      <point x="213" y="750"/>
      <point x="149" y="750" type="curve" smooth="yes"/>
      <point x="93" y="750"/>
      <point x="53" y="720"/>
      <point x="53" y="672" type="curve" smooth="yes"/>
      <point x="53" y="640"/>
      <point x="65" y="616"/>
      <point x="98" y="595" type="curve" smooth="yes"/>
      <point x="123" y="580"/>
      <point x="126" y="566"/>
      <point x="126" y="554" type="curve" smooth="yes"/>
      <point x="126" y="527"/>
      <point x="89" y="482"/>
      <point x="30" y="459" type="curve"/>
    </contour>
  </outline>
</glyph>
<glyph name="perthousand" format="2">
  <advance width="1468"/>
  <unicode hex="2030"/>
  <outline>
    <contour>
      <point x="197" y="0" type="line"/>
      <point x="375" y="0" type="line"/>
      <point x="843" y="700" type="line"/>
      <point x="660" y="700" type="line"/>
    </contour>
    <contour>
      <point x="233" y="321" type="curve" smooth="yes"/>
      <point x="342.333" y="321"/>
      <point x="424" y="406.667"/>
      <point x="424" y="520" type="curve" smooth="yes"/>
      <point x="424" y="637.333"/>
      <point x="346.333" y="720"/>
      <point x="233" y="720" type="curve" smooth="yes"/>
      <point x="118.333" y="720"/>
      <point x="40" y="637.333"/>
      <point x="40" y="520" type="curve" smooth="yes"/>
      <point x="40" y="406.667"/>
      <point x="122.333" y="321"/>
    </contour>
    <contour>
      <point x="233" y="444" type="curve" smooth="yes"/>
      <point x="206.333" y="444"/>
      <point x="192" y="474.667"/>
      <point x="192" y="520" type="curve" smooth="yes"/>
      <point x="192" y="566.667"/>
      <point x="207.667" y="597"/>
      <point x="233" y="597" type="curve" smooth="yes"/>
      <point x="258.333" y="597"/>
      <point x="272" y="566.667"/>
      <point x="272" y="520" type="curve" smooth="yes"/>
      <point x="272" y="474.667"/>
      <point x="258.333" y="444"/>
    </contour>
    <contour>
      <point x="817" y="-9" type="curve" smooth="yes"/>
      <point x="926.333" y="-9"/>
      <point x="1008" y="76.667"/>
      <point x="1008" y="190" type="curve" smooth="yes"/>
      <point x="1008" y="307.333"/>
      <point x="930.333" y="390"/>
      <point x="817" y="390" type="curve" smooth="yes"/>
      <point x="702.333" y="390"/>
      <point x="624" y="307.333"/>
      <point x="624" y="190" type="curve" smooth="yes"/>
      <point x="624" y="76.667"/>
      <point x="706.333" y="-9"/>
    </contour>
    <contour>
      <point x="817" y="114" type="curve" smooth="yes"/>
      <point x="790.333" y="114"/>
      <point x="776" y="144.667"/>
      <point x="776" y="190" type="curve" smooth="yes"/>
      <point x="776" y="236.667"/>
      <point x="791.667" y="267"/>
      <point x="817" y="267" type="curve" smooth="yes"/>
      <point x="842.333" y="267"/>
      <point x="856" y="236.667"/>
      <point x="856" y="190" type="curve" smooth="yes"/>
      <point x="856" y="144.667"/>
      <point x="842.333" y="114"/>
    </contour>
    <contour>
      <point x="1237" y="-9" type="curve" smooth="yes"/>
      <point x="1346.333" y="-9"/>
      <point x="1428" y="76.667"/>
      <point x="1428" y="190" type="curve" smooth="yes"/>
      <point x="1428" y="307.333"/>
      <point x="1350.333" y="390"/>
      <point x="1237" y="390" type="curve" smooth="yes"/>
      <point x="1122.333" y="390"/>
      <point x="1044" y="307.333"/>
      <point x="1044" y="190" type="curve" smooth="yes"/>
      <point x="1044" y="76.667"/>
      <point x="1126.333" y="-9"/>
    </contour>
    <contour>
      <point x="1237" y="114" type="curve" smooth="yes"/>
      <point x="1210.333" y="114"/>
      <point x="1196" y="144.667"/>
      <point x="1196" y="190" type="curve" smooth="yes"/>
      <point x="1196" y="236.667"/>
      <point x="1211.667" y="267"/>
      <point x="1237" y="267" type="curve" smooth="yes"/>
      <point x="1262.333" y="267"/>
      <point x="1276" y="236.667"/>
      <point x="1276" y="190" type="curve" smooth="yes"/>
      <point x="1276" y="144.667"/>
      <point x="1262.333" y="114"/>
    </contour>
  </outline>
</glyph>
<glyph name="fraction" format="2">
  <advance width="606"/>
  <unicode hex="2044"/>
  <outline>
    <contour>
      <point x="-20" y="0" type="line"/>
      <point x="158" y="0" type="line"/>
      <point x="626" y="700" type="line"/>
      <point x="443" y="700" type="line"/>
    </contour>
  </outline>
</glyph>
<glyph name="colonsign" format="2">
  <advance width="705"/>
  <unicode hex="20A1"/>
  <anchor x="353" y="0" name="bottom"/>
  <anchor x="353" y="700" name="top"/>
  <outline>
    <contour>
      <point x="341" y="-72" type="line"/>
      <point x="633" y="749" type="line"/>
      <point x="584" y="770" type="line"/>
      <point x="292" y="-52" type="line"/>
    </contour>
    <contour>
      <point x="220" y="-72" type="line"/>
      <point x="524" y="782" type="line"/>
      <point x="475" y="803" type="line"/>
      <point x="171" y="-52" type="line"/>
    </contour>
    <component base="C"/>
  </outline>
</glyph>
<glyph name="franc" format="2">
  <advance width="630"/>
  <unicode hex="20A3"/>
  <anchor x="315" y="0" name="bottom"/>
  <anchor x="315" y="700" name="top"/>
  <outline>
    <contour>
      <point x="28" y="54" type="line"/>
      <point x="396" y="54" type="line"/>
      <point x="396" y="194" type="line"/>
      <point x="28" y="194" type="line"/>
    </contour>
    <component base="F"/>
  </outline>
</glyph>
<glyph name="naira" format="2">
  <advance width="898"/>
  <unicode hex="20A6"/>
  <anchor x="457" y="0" name="bottom"/>
  <anchor x="457" y="700" name="top"/>
  <outline>
    <contour>
      <point x="20" y="305" type="line"/>
      <point x="152" y="305" type="line"/>
      <point x="182" y="335" type="line"/>
      <point x="709" y="335" type="line"/>
      <point x="750" y="305" type="line"/>
      <point x="878" y="305" type="line"/>
      <point x="878" y="370" type="line"/>
      <point x="755" y="370" type="line"/>
      <point x="713" y="355" type="line"/>
      <point x="188" y="355" type="line"/>
      <point x="154" y="370" type="line"/>
      <point x="20" y="370" type="line"/>
    </contour>
    <component base="N" xOffset="48"/>
  </outline>
</glyph>
<glyph name="euro" format="2">
  <advance width="704"/>
  <unicode hex="20AC"/>
  <outline>
    <contour>
      <point x="478" y="-10" type="curve" smooth="yes"/>
      <point x="550" y="-10"/>
      <point x="611.667" y="2.667"/>
      <point x="677" y="44" type="curve"/>
      <point x="581" y="218" type="line"/>
      <point x="535.667" y="184.667"/>
      <point x="504.667" y="180"/>
      <point x="458" y="180" type="curve" smooth="yes"/>
      <point x="372.667" y="180"/>
      <point x="311" y="253.667"/>
      <point x="311" y="355" type="curve" smooth="yes"/>
      <point x="311" y="456.333"/>
      <point x="372.667" y="530"/>
      <point x="458" y="530" type="curve" smooth="yes"/>
      <point x="500.667" y="530"/>
      <point x="533.667" y="525.333"/>
      <point x="579" y="492" type="curve"/>
      <point x="684" y="663" type="line"/>
      <point x="618.667" y="707"/>
      <point x="555.333" y="720"/>
      <point x="478" y="720" type="curve" smooth="yes"/>
      <point x="252.667" y="720"/>
      <point x="91" y="567"/>
      <point x="91" y="355" type="curve" smooth="yes"/>
      <point x="91" y="143"/>
      <point x="252.667" y="-10"/>
    </contour>
    <contour>
      <point x="20" y="269" type="line"/>
      <point x="517" y="269" type="line"/>
      <point x="517" y="329" type="line"/>
      <point x="20" y="329" type="line"/>
    </contour>
    <contour>
      <point x="20" y="382" type="line"/>
      <point x="517" y="382" type="line"/>
      <point x="517" y="442" type="line"/>
      <point x="20" y="442" type="line"/>
    </contour>
  </outline>
</glyph>
<glyph name="kip" format="2">
  <advance width="771"/>
  <unicode hex="20AD"/>
  <outline>
    <contour>
      <point x="257" y="209" type="line"/>
      <point x="762" y="700" type="line"/>
      <point x="521" y="700" type="line"/>
      <point x="188" y="369" type="line"/>
    </contour>
    <contour>
      <point x="30" y="354" type="line"/>
      <point x="209" y="354" type="line"/>
      <point x="213" y="414" type="line"/>
      <point x="30" y="414" type="line"/>
    </contour>
    <contour>
      <point x="107" y="0" type="line"/>
      <point x="323" y="0" type="line"/>
      <point x="323" y="700" type="line"/>
      <point x="107" y="700" type="line"/>
    </contour>
    <contour>
      <point x="546" y="0" type="line"/>
      <point x="791" y="0" type="line"/>
      <point x="432" y="462" type="line"/>
      <point x="292" y="341" type="line"/>
    </contour>
    <contour>
      <point x="387" y="354" type="line"/>
      <point x="692" y="354" type="line"/>
      <point x="692" y="414" type="line"/>
      <point x="387" y="414" type="line"/>
    </contour>
  </outline>
</glyph>
<glyph name="cedi" format="2">
  <advance width="705"/>
  <unicode hex="20B5"/>
  <anchor x="413" y="0" name="bottom"/>
  <anchor x="426" y="700" name="top"/>
  <outline>
    <contour>
      <point x="349" y="-100" type="line"/>
      <point x="486" y="-100" type="line"/>
      <point x="486" y="7" type="line"/>
      <point x="456" y="45" type="line"/>
      <point x="456" y="647" type="line"/>
      <point x="486" y="702" type="line"/>
      <point x="486" y="807" type="line"/>
      <point x="349" y="807" type="line"/>
      <point x="349" y="703" type="line"/>
      <point x="386" y="647" type="line"/>
      <point x="386" y="46" type="line"/>
      <point x="349" y="8" type="line"/>
    </contour>
    <component base="C"/>
  </outline>
</glyph>
<glyph name="ruble" format="2">
  <advance width="696"/>
  <unicode hex="20BD"/>
  <outline>
    <contour>
      <point x="93" y="0" type="line"/>
      <point x="309" y="0" type="line"/>
      <point x="309" y="282" type="line"/>
      <point x="223" y="208" type="line"/>
      <point x="408" y="208" type="line" smooth="yes"/>
      <point x="552" y="208"/>
      <point x="656" y="313.333"/>
      <point x="656" y="460" type="curve" smooth="yes"/>
      <point x="656" y="600"/>
      <point x="552" y="700"/>
      <point x="408" y="700" type="curve" smooth="yes"/>
      <point x="93" y="700" type="line"/>
    </contour>
    <contour>
      <point x="20" y="100" type="line"/>
      <point x="422" y="100" type="line"/>
      <point x="422" y="160" type="line"/>
      <point x="20" y="160" type="line"/>
    </contour>
    <contour>
      <point x="20" y="208" type="line"/>
      <point x="192" y="208" type="line"/>
      <point x="192" y="308" type="line"/>
      <point x="20" y="308" type="line"/>
    </contour>
    <contour>
      <point x="305" y="358" type="line"/>
      <point x="305" y="611" type="line"/>
      <point x="222" y="516" type="line"/>
      <point x="368" y="516" type="line" smooth="yes"/>
      <point x="406.667" y="516"/>
      <point x="434" y="497.333"/>
      <point x="434" y="456" type="curve" smooth="yes"/>
      <point x="434" y="414.667"/>
      <point x="406.667" y="392"/>
      <point x="368" y="392" type="curve" smooth="yes"/>
      <point x="222" y="392" type="line"/>
    </contour>
  </outline>
</glyph>
<glyph name="summation" format="2">
  <advance width="523"/>
  <unicode hex="2211"/>
  <outline>
    <contour>
      <point x="55" y="-20" type="line"/>
      <point x="500" y="-20" type="line"/>
      <point x="500" y="160" type="line"/>
      <point x="143" y="160" type="line"/>
      <point x="206" y="50" type="line"/>
      <point x="413" y="331" type="line"/>
      <point x="413" y="346" type="line"/>
      <point x="207" y="627" type="line"/>
      <point x="137" y="516" type="line"/>
      <point x="500" y="516" type="line"/>
      <point x="500" y="696" type="line"/>
      <point x="55" y="696" type="line"/>
      <point x="11" y="596" type="line"/>
      <point x="231" y="308" type="line"/>
      <point x="228" y="367" type="line"/>
      <point x="11" y="80" type="line"/>
    </contour>
  </outline>
</glyph>
<glyph name="divisionslash" format="2">
  <advance width="578"/>
  <unicode hex="2215"/>
  <outline>
    <contour>
      <point x="-10" y="-107" type="line"/>
      <point x="168" y="-107" type="line"/>
      <point x="588" y="756" type="line"/>
      <point x="405" y="756" type="line"/>
    </contour>
  </outline>
</glyph>
<glyph name="infinity" format="2">
  <advance width="937"/>
  <unicode hex="221E"/>
  <outline>
    <contour>
      <point x="689" y="27" type="curve" smooth="yes"/>
      <point x="813" y="27"/>
      <point x="897" y="118"/>
      <point x="897" y="262" type="curve" smooth="yes"/>
      <point x="897" y="404.667"/>
      <point x="811" y="497"/>
      <point x="687" y="497" type="curve" smooth="yes"/>
      <point x="608.333" y="497"/>
      <point x="548.667" y="480.333"/>
      <point x="478" y="395" type="curve" smooth="yes"/>
      <point x="376" y="271" type="line"/>
      <point x="333.333" y="225.667"/>
      <point x="307" y="209"/>
      <point x="267" y="209" type="curve" smooth="yes"/>
      <point x="235" y="209"/>
      <point x="213" y="228.667"/>
      <point x="213" y="262" type="curve" smooth="yes"/>
      <point x="213" y="295.333"/>
      <point x="235.333" y="315"/>
      <point x="266" y="315" type="curve" smooth="yes"/>
      <point x="304.667" y="315"/>
      <point x="341.333" y="299.667"/>
      <point x="376" y="257" type="curve" smooth="yes"/>
      <point x="484" y="126" type="line"/>
      <point x="557.333" y="51.333"/>
      <point x="611.667" y="27"/>
    </contour>
    <contour>
      <point x="248" y="27" type="curve" smooth="yes"/>
      <point x="326.667" y="27"/>
      <point x="384.667" y="43"/>
      <point x="454" y="127" type="curve" smooth="yes"/>
      <point x="561" y="257" type="line"/>
      <point x="601" y="297"/>
      <point x="632.667" y="315"/>
      <point x="670" y="315" type="curve" smooth="yes"/>
      <point x="702" y="315"/>
      <point x="724" y="295.333"/>
      <point x="724" y="262" type="curve" smooth="yes"/>
      <point x="724" y="228.667"/>
      <point x="702" y="209"/>
      <point x="670" y="209" type="curve" smooth="yes"/>
      <point x="631.333" y="209"/>
      <point x="601" y="221.667"/>
      <point x="561" y="271" type="curve" smooth="yes"/>
      <point x="459" y="395" type="line"/>
      <point x="380.333" y="476.333"/>
      <point x="328.667" y="497"/>
      <point x="250" y="497" type="curve" smooth="yes"/>
      <point x="126" y="497"/>
      <point x="40" y="404.667"/>
      <point x="40" y="262" type="curve" smooth="yes"/>
      <point x="40" y="118"/>
      <point x="124" y="27"/>
    </contour>
  </outline>
</glyph>
<glyph name="integral" format="2">
  <advance width="667"/>
  <unicode hex="222B"/>
  <outline>
    <contour>
      <point x="152" y="-137" type="curve" smooth="yes"/>
      <point x="291.257" y="-137"/>
      <point x="379.667" y="-58"/>
      <point x="409" y="106" type="curve" smooth="yes"/>
      <point x="476" y="481" type="line" smooth="yes"/>
      <point x="486.667" y="539.667"/>
      <point x="512.333" y="568"/>
      <point x="551" y="568" type="curve" smooth="yes"/>
      <point x="576.333" y="568"/>
      <point x="608.325" y="555.784"/>
      <point x="638" y="536" type="curve"/>
      <point x="701" y="700" type="line"/>
      <point x="652.496" y="741.949"/>
      <point x="593.621" y="765"/>
      <point x="510" y="765" type="curve" smooth="yes"/>
      <point x="388.629" y="765"/>
      <point x="313.029" y="694.005"/>
      <point x="284" y="547" type="curve" smooth="yes"/>
      <point x="206" y="152" type="line" smooth="yes"/>
      <point x="197.115" y="107.003"/>
      <point x="173" y="81"/>
      <point x="141" y="81" type="curve" smooth="yes"/>
      <point x="115.667" y="81"/>
      <point x="89.045" y="94.795"/>
      <point x="66" y="114" type="curve"/>
      <point x="-44" y="-65" type="line"/>
      <point x="29.047" y="-114.916"/>
      <point x="97.652" y="-137"/>
    </contour>
  </outline>
</glyph>
<glyph name="lozenge" format="2">
  <advance width="694"/>
  <unicode hex="25CA"/>
  <outline>
    <contour>
      <point x="348" y="-77" type="line"/>
      <point x="657" y="331" type="line"/>
      <point x="348" y="730" type="line"/>
      <point x="41" y="328" type="line"/>
    </contour>
    <contour>
      <point x="349.944" y="203.223" type="line"/>
      <point x="262.135" y="328.664" type="line"/>
      <point x="348.867" y="450.339" type="line"/>
      <point x="436.054" y="326.773" type="line"/>
    </contour>
  </outline>
</glyph>
<glyph name="J.ss01" format="2">
  <advance width="574"/>
  <anchor x="287" y="0" name="bottom"/>
  <anchor x="391" y="700" name="top"/>
  <outline>
    <contour>
      <point x="251" y="-10" type="curve" smooth="yes"/>
      <point x="396.333" y="-10"/>
      <point x="494" y="70.333"/>
      <point x="494" y="213" type="curve" smooth="yes"/>
      <point x="494" y="700" type="line"/>
      <point x="286" y="700" type="line"/>
      <point x="286" y="236" type="line" smooth="yes"/>
      <point x="286" y="196"/>
      <point x="259" y="174"/>
      <point x="227" y="174" type="curve" smooth="yes"/>
      <point x="192.333" y="174"/>
      <point x="166.333" y="195"/>
      <point x="145" y="227" type="curve"/>
      <point x="20" y="101" type="line"/>
      <point x="54.667" y="37"/>
      <point x="131" y="-10"/>
    </contour>
  </outline>
</glyph>
<glyph name=".notdef" format="2">
  <advance width="584"/>
  <outline>
    <contour>
      <point x="75" y="0" type="curve" smooth="yes"/>
      <point x="509" y="0" type="line" smooth="yes"/>
      <point x="531.667" y="0"/>
      <point x="544" y="12.333"/>
      <point x="544" y="35" type="curve" smooth="yes"/>
      <point x="544" y="665" type="line" smooth="yes"/>
      <point x="544" y="687.667"/>
      <point x="531.667" y="700"/>
      <point x="509" y="700" type="curve" smooth="yes"/>
      <point x="75" y="700" type="line" smooth="yes"/>
      <point x="52.333" y="700"/>
      <point x="40" y="687.667"/>
      <point x="40" y="665" type="curve" smooth="yes"/>
      <point x="40" y="35" type="line" smooth="yes"/>
      <point x="40" y="12.333"/>
      <point x="52.333" y="0"/>
    </contour>
    <contour>
      <point x="75" y="30" type="line" smooth="yes"/>
      <point x="72.333" y="30"/>
      <point x="70" y="32.333"/>
      <point x="70" y="35" type="curve" smooth="yes"/>
      <point x="70" y="633" type="line" smooth="yes"/>
      <point x="70" y="638.333"/>
      <point x="73.333" y="639"/>
      <point x="76" y="635" type="curve" smooth="yes"/>
      <point x="491" y="36" type="line"/>
      <point x="493.667" y="33.333"/>
      <point x="492" y="30"/>
      <point x="488" y="30" type="curve" smooth="yes"/>
    </contour>
    <contour>
      <point x="508" y="65" type="curve" smooth="yes"/>
      <point x="92" y="664" type="line"/>
      <point x="89.333" y="666.667"/>
      <point x="91" y="670"/>
      <point x="95" y="670" type="curve" smooth="yes"/>
      <point x="509" y="670" type="line" smooth="yes"/>
      <point x="511.667" y="670"/>
      <point x="514" y="667.667"/>
      <point x="514" y="665" type="curve" smooth="yes"/>
      <point x="514" y="67" type="line" smooth="yes"/>
      <point x="514" y="61.667"/>
      <point x="510.667" y="61"/>
    </contour>
  </outline>
</glyph>
<glyph name="a.ss01" format="2">
  <advance width="591"/>
  <anchor x="296" y="0" name="bottom"/>
  <anchor x="496" y="0" name="ogonek"/>
  <anchor x="296" y="535" name="top"/>
  <outline>
    <contour>
      <point x="335" y="0" type="line"/>
      <point x="536" y="0" type="line"/>
      <point x="536" y="352" type="line" smooth="yes"/>
      <point x="536" y="488"/>
      <point x="441.667" y="546"/>
      <point x="299" y="546" type="curve" smooth="yes"/>
      <point x="187" y="546"/>
      <point x="98.333" y="500"/>
      <point x="33" y="440" type="curve"/>
      <point x="148" y="327" type="line"/>
      <point x="185.333" y="368.333"/>
      <point x="219.667" y="382"/>
      <point x="265" y="382" type="curve" smooth="yes"/>
      <point x="314.333" y="382"/>
      <point x="335" y="368.333"/>
      <point x="335" y="315" type="curve" smooth="yes"/>
    </contour>
    <contour>
      <point x="208" y="-10" type="curve" smooth="yes"/>
      <point x="281.333" y="-10"/>
      <point x="350.667" y="39"/>
      <point x="392" y="107" type="curve"/>
      <point x="362" y="180" type="line"/>
      <point x="343.333" y="145.333"/>
      <point x="310.667" y="128"/>
      <point x="272" y="128" type="curve" smooth="yes"/>
      <point x="245.333" y="128"/>
      <point x="227" y="142.333"/>
      <point x="227" y="161" type="curve" smooth="yes"/>
      <point x="227" y="183.667"/>
      <point x="247" y="197"/>
      <point x="283" y="197" type="curve" smooth="yes"/>
      <point x="433" y="197" type="line"/>
      <point x="442" y="309" type="line"/>
      <point x="266" y="309" type="line" smooth="yes"/>
      <point x="110" y="309"/>
      <point x="30" y="254.333"/>
      <point x="30" y="149" type="curve" smooth="yes"/>
      <point x="30" y="53"/>
      <point x="106.667" y="-10"/>
    </contour>
  </outline>
</glyph>
<glyph name="acutecomb_dotaccentcomb.case" format="2">
  <anchor x="234" y="700" name="_top"/>
  <anchor x="234" y="920" name="top"/>
  <outline>
    <contour>
      <point x="335" y="752" type="line"/>
      <point x="470" y="901" type="line"/>
      <point x="351" y="985" type="line"/>
      <point x="256" y="802" type="line"/>
    </contour>
    <contour>
      <point x="133" y="751" type="curve" smooth="yes"/>
      <point x="196" y="751"/>
      <point x="235" y="786"/>
      <point x="235" y="836" type="curve" smooth="yes"/>
      <point x="235" y="890"/>
      <point x="197" y="921"/>
      <point x="133" y="921" type="curve" smooth="yes"/>
      <point x="70" y="921"/>
      <point x="31" y="886"/>
      <point x="31" y="836" type="curve" smooth="yes"/>
      <point x="31" y="782"/>
      <point x="69" y="751"/>
    </contour>
  </outline>
</glyph>
<glyph name="brevecomb_acutecomb.case" format="2">
  <anchor x="250" y="700" name="_top"/>
  <anchor x="250" y="900" name="top"/>
  <outline>
    <contour>
      <point x="250" y="740" type="curve" smooth="yes"/>
      <point x="347" y="740"/>
      <point x="422" y="795"/>
      <point x="442" y="889" type="curve"/>
      <point x="325" y="901" type="line"/>
      <point x="310" y="860"/>
      <point x="278" y="851"/>
      <point x="250" y="851" type="curve" smooth="yes"/>
      <point x="222" y="851"/>
      <point x="190" y="860"/>
      <point x="175" y="901" type="curve"/>
      <point x="58" y="889" type="line"/>
      <point x="78" y="795"/>
      <point x="153" y="740"/>
    </contour>
    <contour>
      <point x="261" y="891" type="line"/>
      <point x="403" y="1041" type="line"/>
      <point x="293" y="1120" type="line"/>
      <point x="189" y="942" type="line"/>
    </contour>
  </outline>
</glyph>
<glyph name="brevecomb_hookabovecomb" format="2">
  <anchor x="250" y="525" name="_top"/>
  <anchor x="250" y="800" name="top"/>
  <outline>
    <contour>
      <point x="250" y="577" type="curve" smooth="yes"/>
      <point x="348" y="577"/>
      <point x="423" y="632"/>
      <point x="442" y="726" type="curve"/>
      <point x="325" y="738" type="line"/>
      <point x="310" y="697"/>
      <point x="278" y="688"/>
      <point x="250" y="688" type="curve" smooth="yes"/>
      <point x="222" y="688"/>
      <point x="190" y="697"/>
      <point x="175" y="738" type="curve"/>
      <point x="58" y="726" type="line"/>
      <point x="78" y="631"/>
      <point x="153" y="577"/>
    </contour>
    <contour>
      <point x="222" y="716" type="curve"/>
      <point x="287" y="731" type="line"/>
      <point x="286" y="734"/>
      <point x="287" y="736"/>
      <point x="287" y="737" type="curve" smooth="yes"/>
      <point x="287" y="751"/>
      <point x="305" y="762"/>
      <point x="324" y="772" type="curve" smooth="yes"/>
      <point x="352" y="788"/>
      <point x="379" y="806"/>
      <point x="379" y="854" type="curve" smooth="yes"/>
      <point x="379" y="920"/>
      <point x="318" y="957"/>
      <point x="235" y="957" type="curve" smooth="yes"/>
      <point x="178" y="957"/>
      <point x="127" y="942"/>
      <point x="99" y="928" type="curve"/>
      <point x="125" y="827" type="line"/>
      <point x="157" y="838"/>
      <point x="187" y="848"/>
      <point x="217" y="848" type="curve" smooth="yes"/>
      <point x="238" y="848"/>
      <point x="252" y="840"/>
      <point x="252" y="827" type="curve" smooth="yes"/>
      <point x="251" y="816"/>
      <point x="237" y="806"/>
      <point x="226" y="798" type="curve" smooth="yes"/>
      <point x="206" y="784"/>
      <point x="202" y="774"/>
      <point x="201" y="759" type="curve" smooth="yes"/>
      <point x="201" y="743"/>
      <point x="208" y="728"/>
    </contour>
  </outline>
</glyph>
<glyph name="brevecomb_tildecomb.case" format="2">
  <anchor x="250" y="700" name="_top"/>
  <anchor x="250" y="900" name="top"/>
  <outline>
    <contour>
      <point x="250" y="737" type="curve" smooth="yes"/>
      <point x="347" y="737"/>
      <point x="422" y="792"/>
      <point x="442" y="886" type="curve"/>
      <point x="325" y="898" type="line"/>
      <point x="310" y="857"/>
      <point x="278" y="848"/>
      <point x="250" y="848" type="curve" smooth="yes"/>
      <point x="222" y="848"/>
      <point x="190" y="857"/>
      <point x="175" y="898" type="curve"/>
      <point x="58" y="886" type="line"/>
      <point x="78" y="792"/>
      <point x="153" y="737"/>
    </contour>
    <contour>
      <point x="330" y="943" type="curve" smooth="yes"/>
      <point x="402" y="943"/>
      <point x="452" y="1011"/>
      <point x="452" y="1097" type="curve"/>
      <point x="343" y="1097" type="line"/>
      <point x="339" y="1073"/>
      <point x="333" y="1057"/>
      <point x="311" y="1057" type="curve" smooth="yes"/>
      <point x="297" y="1057"/>
      <point x="284" y="1063"/>
      <point x="261" y="1074" type="curve" smooth="yes"/>
      <point x="229" y="1089"/>
      <point x="207" y="1097"/>
      <point x="179" y="1097" type="curve" smooth="yes"/>
      <point x="101" y="1097"/>
      <point x="49" y="1038"/>
      <point x="49" y="944" type="curve"/>
      <point x="158" y="944" type="line"/>
      <point x="162" y="968"/>
      <point x="172" y="983"/>
      <point x="197" y="983" type="curve" smooth="yes"/>
      <point x="210" y="983"/>
      <point x="225" y="977"/>
      <point x="251" y="965" type="curve" smooth="yes"/>
      <point x="286" y="949"/>
      <point x="307" y="943"/>
    </contour>
  </outline>
</glyph>
<glyph name="caroncomb.alt" format="2">
  <anchor x="119" y="696" name="_topright"/>
  <outline>
    <contour>
      <point x="191" y="401" type="line"/>
      <point x="296" y="429"/>
      <point x="361" y="487"/>
      <point x="361" y="584" type="curve" smooth="yes"/>
      <point x="361" y="661"/>
      <point x="309" y="696"/>
      <point x="244" y="696" type="curve" smooth="yes"/>
      <point x="192" y="696"/>
      <point x="152" y="672"/>
      <point x="152" y="619" type="curve" smooth="yes"/>
      <point x="152" y="587"/>
      <point x="166" y="569"/>
      <point x="197" y="554" type="curve" smooth="yes"/>
      <point x="214" y="545"/>
      <point x="225" y="540"/>
      <point x="225" y="527" type="curve" smooth="yes"/>
      <point x="225" y="498"/>
      <point x="166" y="475"/>
      <point x="139" y="465" type="curve"/>
    </contour>
  </outline>
</glyph>
<glyph name="circumflexcomb.case" format="2">
  <anchor x="250" y="700" name="_top"/>
  <anchor x="250" y="920" name="top"/>
  <outline>
    <contour>
      <point x="112" y="753" type="line"/>
      <point x="265" y="829" type="line"/>
      <point x="235" y="829" type="line"/>
      <point x="388" y="753" type="line"/>
      <point x="446" y="826" type="line"/>
      <point x="301" y="937" type="line"/>
      <point x="199" y="937" type="line"/>
      <point x="54" y="826" type="line"/>
    </contour>
  </outline>
</glyph>
<glyph name="circumflexcomb_acutecomb.case" format="2">
  <anchor x="250" y="700" name="_top"/>
  <anchor x="250" y="900" name="top"/>
  <outline>
    <contour>
      <point x="108" y="737" type="line"/>
      <point x="265" y="802" type="line"/>
      <point x="235" y="802" type="line"/>
      <point x="392" y="737" type="line"/>
      <point x="446" y="806" type="line"/>
      <point x="301" y="910" type="line"/>
      <point x="199" y="910" type="line"/>
      <point x="54" y="806" type="line"/>
    </contour>
    <contour>
      <point x="444" y="1110" type="line"/>
      <point x="340" y="932" type="line"/>
      <point x="412" y="881" type="line"/>
      <point x="554" y="1031" type="line"/>
    </contour>
  </outline>
</glyph>
<glyph name="circumflexcomb_acutecomb" format="2">
  <anchor x="176" y="525" name="_top"/>
  <anchor x="176" y="810" name="top"/>
  <outline>
    <contour>
      <point x="34" y="587" type="line"/>
      <point x="191" y="652" type="line"/>
      <point x="161" y="652" type="line"/>
      <point x="318" y="587" type="line"/>
      <point x="372" y="656" type="line"/>
      <point x="227" y="760" type="line"/>
      <point x="125" y="760" type="line"/>
      <point x="-20" y="656" type="line"/>
    </contour>
    <contour>
      <point x="388" y="751" type="line"/>
      <point x="530" y="901" type="line"/>
      <point x="420" y="980" type="line"/>
      <point x="316" y="802" type="line"/>
    </contour>
  </outline>
</glyph>
<glyph name="circumflexcomb_gravecomb.case" format="2">
  <anchor x="226" y="700" name="_top"/>
  <anchor x="226" y="900" name="top"/>
  <outline>
    <contour>
      <point x="84" y="737" type="line"/>
      <point x="241" y="802" type="line"/>
      <point x="211" y="802" type="line"/>
      <point x="368" y="737" type="line"/>
      <point x="422" y="806" type="line"/>
      <point x="277" y="910" type="line"/>
      <point x="175" y="910" type="line"/>
      <point x="30" y="806" type="line"/>
    </contour>
    <contour>
      <point x="398" y="891" type="line"/>
      <point x="470" y="942" type="line"/>
      <point x="366" y="1120" type="line"/>
      <point x="256" y="1041" type="line"/>
    </contour>
  </outline>
</glyph>
<glyph name="circumflexcomb_gravecomb" format="2">
  <anchor x="226" y="525" name="_top"/>
  <anchor x="226" y="810" name="top"/>
  <outline>
    <contour>
      <point x="84" y="586" type="line"/>
      <point x="241" y="651" type="line"/>
      <point x="211" y="651" type="line"/>
      <point x="368" y="586" type="line"/>
      <point x="422" y="655" type="line"/>
      <point x="277" y="759" type="line"/>
      <point x="175" y="759" type="line"/>
      <point x="30" y="655" type="line"/>
    </contour>
    <contour>
      <point x="408" y="750" type="line"/>
      <point x="480" y="801" type="line"/>
      <point x="376" y="979" type="line"/>
      <point x="266" y="900" type="line"/>
    </contour>
  </outline>
</glyph>
<glyph name="circumflexcomb_hookabovecomb" format="2">
  <anchor x="188" y="525" name="_top"/>
  <anchor x="188" y="810" name="top"/>
  <outline>
    <contour>
      <point x="46" y="587" type="line"/>
      <point x="203" y="652" type="line"/>
      <point x="173" y="652" type="line"/>
      <point x="330" y="587" type="line"/>
      <point x="384" y="656" type="line"/>
      <point x="239" y="760" type="line"/>
      <point x="137" y="760" type="line"/>
      <point x="-9" y="656" type="line"/>
    </contour>
    <contour>
      <point x="352" y="746" type="curve"/>
      <point x="417" y="761" type="line"/>
      <point x="416" y="764"/>
      <point x="417" y="766"/>
      <point x="417" y="767" type="curve" smooth="yes"/>
      <point x="417" y="781"/>
      <point x="435" y="792"/>
      <point x="454" y="802" type="curve" smooth="yes"/>
      <point x="482" y="818"/>
      <point x="509" y="836"/>
      <point x="509" y="884" type="curve" smooth="yes"/>
      <point x="509" y="950"/>
      <point x="448" y="987"/>
      <point x="365" y="987" type="curve" smooth="yes"/>
      <point x="308" y="987"/>
      <point x="257" y="972"/>
      <point x="229" y="958" type="curve"/>
      <point x="255" y="857" type="line"/>
      <point x="287" y="868"/>
      <point x="317" y="878"/>
      <point x="347" y="878" type="curve" smooth="yes"/>
      <point x="368" y="878"/>
      <point x="382" y="870"/>
      <point x="382" y="857" type="curve" smooth="yes"/>
      <point x="381" y="846"/>
      <point x="367" y="836"/>
      <point x="356" y="828" type="curve" smooth="yes"/>
      <point x="336" y="814"/>
      <point x="332" y="804"/>
      <point x="331" y="789" type="curve" smooth="yes"/>
      <point x="331" y="773"/>
      <point x="338" y="758"/>
    </contour>
  </outline>
</glyph>
<glyph name="circumflexcomb_tildecomb.case" format="2">
  <anchor x="250" y="700" name="_top"/>
  <anchor x="250" y="900" name="top"/>
  <outline>
    <contour>
      <point x="108" y="737" type="line"/>
      <point x="265" y="802" type="line"/>
      <point x="235" y="802" type="line"/>
      <point x="392" y="737" type="line"/>
      <point x="446" y="806" type="line"/>
      <point x="301" y="910" type="line"/>
      <point x="199" y="910" type="line"/>
      <point x="54" y="806" type="line"/>
    </contour>
    <contour>
      <point x="335" y="946" type="curve" smooth="yes"/>
      <point x="402" y="946"/>
      <point x="452" y="1012"/>
      <point x="452" y="1097" type="curve"/>
      <point x="343" y="1097" type="line"/>
      <point x="339" y="1075"/>
      <point x="333" y="1060"/>
      <point x="311" y="1060" type="curve" smooth="yes"/>
      <point x="297" y="1060"/>
      <point x="280" y="1064"/>
      <point x="258" y="1074" type="curve" smooth="yes"/>
      <point x="223" y="1089"/>
      <point x="207" y="1094"/>
      <point x="179" y="1094" type="curve" smooth="yes"/>
      <point x="101" y="1094"/>
      <point x="49" y="1036"/>
      <point x="49" y="944" type="curve"/>
      <point x="158" y="944" type="line"/>
      <point x="162" y="967"/>
      <point x="172" y="981"/>
      <point x="197" y="981" type="curve" smooth="yes"/>
      <point x="210" y="981"/>
      <point x="226" y="975"/>
      <point x="251" y="965" type="curve" smooth="yes"/>
      <point x="282" y="953"/>
      <point x="307" y="946"/>
    </contour>
  </outline>
</glyph>
<glyph name="commaaccentcomb.case" format="2">
  <anchor x="250" y="0" name="_bottom"/>
  <anchor x="250" y="-331" name="bottom"/>
  <outline>
    <contour>
      <point x="191" y="-331" type="line"/>
      <point x="296" y="-303"/>
      <point x="361" y="-245"/>
      <point x="361" y="-148" type="curve" smooth="yes"/>
      <point x="361" y="-71"/>
      <point x="309" y="-36"/>
      <point x="244" y="-36" type="curve" smooth="yes"/>
      <point x="192" y="-36"/>
      <point x="152" y="-60"/>
      <point x="152" y="-113" type="curve" smooth="yes"/>
      <point x="152" y="-145"/>
      <point x="166" y="-163"/>
      <point x="197" y="-178" type="curve" smooth="yes"/>
      <point x="214" y="-187"/>
      <point x="225" y="-192"/>
      <point x="225" y="-205" type="curve" smooth="yes"/>
      <point x="225" y="-234"/>
      <point x="166" y="-257"/>
      <point x="139" y="-267" type="curve"/>
    </contour>
  </outline>
</glyph>
<glyph name="dblgravecomb.case" format="2">
  <anchor x="297" y="700" name="_top"/>
  <anchor x="250" y="900" name="top"/>
  <outline>
    <contour>
      <point x="429" y="737" type="line"/>
      <point x="497" y="816" type="line"/>
      <point x="346" y="978" type="line"/>
      <point x="255" y="871" type="line"/>
    </contour>
    <contour>
      <point x="190" y="732" type="line"/>
      <point x="256" y="816" type="line"/>
      <point x="93" y="975" type="line"/>
      <point x="3" y="861" type="line"/>
    </contour>
  </outline>
</glyph>
<glyph name="five.dnom" format="2">
  <advance width="376"/>
  <outline>
    <contour>
      <point x="162" y="-10" type="curve" smooth="yes"/>
      <point x="265.268" y="-10"/>
      <point x="336" y="43.667"/>
      <point x="336" y="125" type="curve" smooth="yes"/>
      <point x="336" y="185.947"/>
      <point x="275" y="234"/>
      <point x="199" y="234" type="curve" smooth="yes"/>
      <point x="161.395" y="234"/>
      <point x="135.279" y="229.308"/>
      <point x="116" y="208" type="curve"/>
      <point x="142" y="186" type="line"/>
      <point x="179" y="331" type="line"/>
      <point x="122" y="272" type="line"/>
      <point x="316" y="272" type="line"/>
      <point x="316" y="379" type="line"/>
      <point x="63" y="379" type="line"/>
      <point x="34" y="196" type="line"/>
      <point x="88" y="145" type="line"/>
      <point x="112.612" y="159.767"/>
      <point x="139.629" y="164"/>
      <point x="164" y="164" type="curve" smooth="yes"/>
      <point x="189.895" y="164"/>
      <point x="205" y="151.333"/>
      <point x="205" y="134" type="curve" smooth="yes"/>
      <point x="205" y="115.333"/>
      <point x="191.609" y="103"/>
      <point x="167" y="103" type="curve" smooth="yes"/>
      <point x="133.452" y="103"/>
      <point x="105" y="110.667"/>
      <point x="77" y="124" type="curve"/>
      <point x="20" y="32" type="line"/>
      <point x="53.572" y="6.821"/>
      <point x="116.101" y="-10"/>
    </contour>
  </outline>
</glyph>
<glyph name="g.ss01" format="2">
  <advance width="638"/>
  <anchor x="319" y="-230" name="bottom"/>
  <anchor x="319" y="535" name="top"/>
  <outline>
    <contour>
      <point x="329" y="-230" type="curve" smooth="yes"/>
      <point x="509" y="-230"/>
      <point x="618" y="-164.667"/>
      <point x="618" y="-50" type="curve" smooth="yes"/>
      <point x="618" y="74"/>
      <point x="509" y="130"/>
      <point x="329" y="130" type="curve" smooth="yes"/>
      <point x="290" y="130" type="line" smooth="yes"/>
      <point x="268.667" y="130"/>
      <point x="257" y="139"/>
      <point x="257" y="155" type="curve" smooth="yes"/>
      <point x="257" y="172.333"/>
      <point x="270" y="181"/>
      <point x="290" y="181" type="curve" smooth="yes"/>
      <point x="311" y="181" type="line" smooth="yes"/>
      <point x="443" y="181"/>
      <point x="548" y="264.333"/>
      <point x="548" y="367" type="curve" smooth="yes"/>
      <point x="548" y="389"/>
      <point x="542" y="409"/>
      <point x="537" y="431" type="curve"/>
      <point x="514" y="402" type="line"/>
      <point x="618" y="402" type="line"/>
      <point x="618" y="535" type="line"/>
      <point x="365" y="535" type="line"/>
      <point x="424" y="527" type="line"/>
      <point x="360" y="544.333"/>
      <point x="342" y="546"/>
      <point x="314" y="546" type="curve" smooth="yes"/>
      <point x="182" y="546"/>
      <point x="75" y="465.667"/>
      <point x="75" y="367" type="curve" smooth="yes"/>
      <point x="75" y="313.667"/>
      <point x="95" y="270.333"/>
      <point x="171" y="213" type="curve"/>
      <point x="174" y="231" type="line"/>
      <point x="125" y="231"/>
      <point x="76" y="202"/>
      <point x="76" y="152" type="curve" smooth="yes"/>
      <point x="76" y="114"/>
      <point x="106" y="85"/>
      <point x="144" y="78" type="curve"/>
      <point x="150" y="85" type="line"/>
      <point x="72" y="63"/>
      <point x="40" y="11.333"/>
      <point x="40" y="-50" type="curve" smooth="yes"/>
      <point x="40" y="-164.667"/>
      <point x="139.667" y="-230"/>
    </contour>
    <contour>
      <point x="328" y="-93" type="curve" smooth="yes"/>
      <point x="277.333" y="-93"/>
      <point x="245" y="-74"/>
      <point x="245" y="-50" type="curve" smooth="yes"/>
      <point x="245" y="-23.333"/>
      <point x="277.333" y="-7"/>
      <point x="328" y="-7" type="curve" smooth="yes"/>
      <point x="380" y="-7"/>
      <point x="413" y="-23.333"/>
      <point x="413" y="-50" type="curve" smooth="yes"/>
      <point x="413" y="-74"/>
      <point x="380" y="-93"/>
    </contour>
    <contour>
      <point x="314" y="309" type="curve" smooth="yes"/>
      <point x="280.667" y="309"/>
      <point x="255" y="331.333"/>
      <point x="255" y="362" type="curve" smooth="yes"/>
      <point x="255" y="388.667"/>
      <point x="280.667" y="411"/>
      <point x="314" y="411" type="curve" smooth="yes"/>
      <point x="347.333" y="411"/>
      <point x="373" y="388.667"/>
      <point x="373" y="362" type="curve" smooth="yes"/>
      <point x="373" y="330"/>
      <point x="347.333" y="309"/>
    </contour>
  </outline>
</glyph>
<glyph name="gravecomb.case" format="2">
  <anchor x="237" y="700" name="_top"/>
  <anchor x="247" y="900" name="top"/>
  <outline>
    <contour>
      <point x="351" y="742" type="line"/>
      <point x="394" y="844" type="line"/>
      <point x="166" y="960" type="line"/>
      <point x="106" y="823" type="line"/>
    </contour>
  </outline>
</glyph>
<glyph name="hookabovecomb.case" format="2">
  <anchor x="250" y="700" name="_top"/>
  <anchor x="250" y="920" name="top"/>
  <outline>
    <contour>
      <point x="223" y="737" type="curve"/>
      <point x="306" y="754" type="line"/>
      <point x="304" y="759"/>
      <point x="303" y="764"/>
      <point x="303" y="768" type="curve" smooth="yes"/>
      <point x="303" y="781"/>
      <point x="323" y="796"/>
      <point x="343" y="810" type="curve" smooth="yes"/>
      <point x="365" y="827"/>
      <point x="391" y="848"/>
      <point x="391" y="899" type="curve" smooth="yes"/>
      <point x="391" y="964"/>
      <point x="333" y="1000"/>
      <point x="255" y="1000" type="curve" smooth="yes"/>
      <point x="194" y="1000"/>
      <point x="139" y="982"/>
      <point x="109" y="966" type="curve"/>
      <point x="138" y="866" type="line"/>
      <point x="172" y="879"/>
      <point x="203" y="890"/>
      <point x="234" y="890" type="curve" smooth="yes"/>
      <point x="253" y="890"/>
      <point x="265" y="883"/>
      <point x="265" y="871" type="curve" smooth="yes"/>
      <point x="265" y="855"/>
      <point x="250" y="847"/>
      <point x="235" y="836" type="curve" smooth="yes"/>
      <point x="208" y="817"/>
      <point x="201" y="803"/>
      <point x="201" y="783" type="curve" smooth="yes"/>
      <point x="201" y="764"/>
      <point x="212" y="749"/>
    </contour>
  </outline>
</glyph>
<glyph name="horncomb.case" format="2">
  <anchor x="130" y="542" name="_topright"/>
  <anchor x="391" y="676" name="topright"/>
  <outline>
    <contour>
      <point x="130" y="420" type="line"/>
      <point x="283" y="420"/>
      <point x="371" y="530"/>
      <point x="371" y="676" type="curve"/>
      <point x="219" y="676" type="line"/>
      <point x="219" y="587"/>
      <point x="190" y="542"/>
      <point x="130" y="542" type="curve"/>
    </contour>
  </outline>
</glyph>
<glyph name="macroncomb_acutecomb" format="2">
  <anchor x="250" y="525" name="_top"/>
  <anchor x="250" y="740" name="top"/>
  <outline>
    <contour>
      <point x="63" y="618" type="line"/>
      <point x="437" y="618" type="line"/>
      <point x="437" y="738" type="line"/>
      <point x="63" y="738" type="line"/>
    </contour>
    <contour>
      <point x="261" y="788" type="line"/>
      <point x="396" y="937" type="line"/>
      <point x="277" y="1021" type="line"/>
      <point x="182" y="838" type="line"/>
    </contour>
  </outline>
</glyph>
<glyph name="macroncomb_gravecomb" format="2">
  <anchor x="250" y="525" name="_top"/>
  <anchor x="250" y="740" name="top"/>
  <outline>
    <contour>
      <point x="257" y="768" type="line"/>
      <point x="336" y="818" type="line"/>
      <point x="241" y="1001" type="line"/>
      <point x="122" y="917" type="line"/>
    </contour>
    <contour>
      <point x="63" y="618" type="line"/>
      <point x="437" y="618" type="line"/>
      <point x="437" y="738" type="line"/>
      <point x="63" y="738" type="line"/>
    </contour>
  </outline>
</glyph>
<glyph name="ogonekcomb.case" format="2">
  <anchor x="325" y="0" name="_ogonek"/>
  <outline>
    <contour>
      <point x="248" y="-220" type="curve" smooth="yes"/>
      <point x="312" y="-220"/>
      <point x="353" y="-185"/>
      <point x="377" y="-133" type="curve"/>
      <point x="297" y="-74" type="line"/>
      <point x="288" y="-90"/>
      <point x="280" y="-97"/>
      <point x="267" y="-97" type="curve" smooth="yes"/>
      <point x="252" y="-97"/>
      <point x="245" y="-85"/>
      <point x="245" y="-70" type="curve" smooth="yes"/>
      <point x="245" y="-38"/>
      <point x="280" y="-7"/>
      <point x="325" y="0" type="curve"/>
      <point x="294" y="49" type="line"/>
      <point x="186" y="20"/>
      <point x="119" y="-41"/>
      <point x="119" y="-110" type="curve" smooth="yes"/>
      <point x="119" y="-177"/>
      <point x="173" y="-220"/>
    </contour>
  </outline>
</glyph>
<glyph name="one.dnom" format="2">
  <advance width="298"/>
  <outline>
    <contour>
      <point x="108" y="0" type="line"/>
      <point x="134" y="0"/>
      <point x="157.833" y="0"/>
      <point x="179.5" y="0" type="curve" smooth="yes"/>
      <point x="251" y="0" type="line"/>
      <point x="251" y="379" type="line"/>
      <point x="142" y="379" type="line"/>
      <point x="10" y="301" type="line"/>
      <point x="64" y="205" type="line"/>
      <point x="134" y="247" type="line"/>
      <point x="108" y="305" type="line"/>
    </contour>
  </outline>
</glyph>
<glyph name="ringcomb.case" format="2">
  <anchor x="251" y="700" name="_top"/>
  <anchor x="251" y="998" name="top"/>
  <outline>
    <contour>
      <point x="251" y="749" type="curve" smooth="yes"/>
      <point x="331" y="749"/>
      <point x="400" y="812"/>
      <point x="400" y="884" type="curve" smooth="yes"/>
      <point x="400" y="964"/>
      <point x="331" y="1030"/>
      <point x="251" y="1030" type="curve" smooth="yes"/>
      <point x="169" y="1030"/>
      <point x="101" y="964"/>
      <point x="101" y="884" type="curve" smooth="yes"/>
      <point x="101" y="812"/>
      <point x="171" y="749"/>
    </contour>
    <contour>
      <point x="251" y="848" type="curve" smooth="yes"/>
      <point x="232" y="848"/>
      <point x="216" y="864"/>
      <point x="216" y="884" type="curve" smooth="yes"/>
      <point x="216" y="905"/>
      <point x="232" y="921"/>
      <point x="251" y="921" type="curve" smooth="yes"/>
      <point x="269" y="921"/>
      <point x="286" y="905"/>
      <point x="286" y="884" type="curve" smooth="yes"/>
      <point x="286" y="864"/>
      <point x="269" y="848"/>
    </contour>
  </outline>
</glyph>
<glyph name="six.dnom" format="2">
  <advance width="403"/>
  <outline>
    <contour>
      <point x="209" y="-11" type="curve" smooth="yes"/>
      <point x="303.667" y="-11"/>
      <point x="367" y="40.333"/>
      <point x="367" y="119" type="curve" smooth="yes"/>
      <point x="367" y="192.333"/>
      <point x="310.667" y="244"/>
      <point x="232" y="244" type="curve" smooth="yes"/>
      <point x="172" y="244"/>
      <point x="119.333" y="195.667"/>
      <point x="94" y="117" type="curve"/>
      <point x="164" y="188" type="line"/>
      <point x="166.667" y="249.333"/>
      <point x="191" y="285"/>
      <point x="246" y="285" type="curve" smooth="yes"/>
      <point x="259" y="285"/>
      <point x="289.333" y="280"/>
      <point x="312" y="264" type="curve"/>
      <point x="364" y="351" type="line"/>
      <point x="326.667" y="379"/>
      <point x="279" y="389"/>
      <point x="231" y="389" type="curve" smooth="yes"/>
      <point x="105.667" y="389"/>
      <point x="36" y="295.667"/>
      <point x="36" y="173" type="curve" smooth="yes"/>
      <point x="36" y="55.667"/>
      <point x="107.667" y="-11"/>
    </contour>
    <contour>
      <point x="212" y="85" type="curve" smooth="yes"/>
      <point x="189.333" y="85"/>
      <point x="173" y="100.667"/>
      <point x="173" y="122" type="curve" smooth="yes"/>
      <point x="173" y="142"/>
      <point x="190.333" y="158"/>
      <point x="213" y="158" type="curve" smooth="yes"/>
      <point x="234.333" y="158"/>
      <point x="251" y="140.667"/>
      <point x="251" y="122" type="curve" smooth="yes"/>
      <point x="251" y="100.667"/>
      <point x="233.333" y="85"/>
    </contour>
  </outline>
</glyph>
<glyph name="two.dnom" format="2">
  <advance width="378"/>
  <outline>
    <contour>
      <point x="57" y="0" type="line"/>
      <point x="358" y="0" type="line"/>
      <point x="358" y="107" type="line"/>
      <point x="150" y="107" type="line"/>
      <point x="150" y="70" type="line"/>
      <point x="194" y="92" type="line" smooth="yes"/>
      <point x="268.667" y="129.333"/>
      <point x="345" y="174.333"/>
      <point x="345" y="273" type="curve" smooth="yes"/>
      <point x="345" y="334.333"/>
      <point x="290.333" y="389"/>
      <point x="205" y="389" type="curve" smooth="yes"/>
      <point x="132.467" y="389"/>
      <point x="85.667" y="356"/>
      <point x="35" y="288" type="curve"/>
      <point x="131" y="220" type="line"/>
      <point x="143" y="243"/>
      <point x="166" y="272"/>
      <point x="194" y="272" type="curve" smooth="yes"/>
      <point x="208" y="272"/>
      <point x="216" y="262"/>
      <point x="216" y="247" type="curve" smooth="yes"/>
      <point x="216" y="222"/>
      <point x="185" y="191"/>
      <point x="145" y="164" type="curve" smooth="yes"/>
      <point x="40" y="93" type="line"/>
    </contour>
  </outline>
</glyph>
